<svg xmlns="http://www.w3.org/2000/svg" version="1.1" xmlns:xlink="http://www.w3.org/1999/xlink" xmlns:svgjs="http://svgjs.dev/svgjs" width="1440" height="560" preserveAspectRatio="none" viewBox="0 0 1440 560"><g mask="url(&quot;#SvgjsMask1002&quot;)" fill="none"><path d="M565.32 653.18C721.29 633.52 813.76 279.5 1070.5 278.75 1327.24 278 1440.75 466.02 1575.68 469.15" stroke="rgba(169, 169, 169, 1)" stroke-width="2"></path><path d="M410.67 572.04C579.07 568.47 708.75 347.17 1043.57 341.03 1378.39 334.89 1510 136.44 1676.47 133.83" stroke="rgba(169, 169, 169, 1)" stroke-width="2"></path><path d="M377.09 635.96C475.68 632.78 448.05 488.61 740.04 481.24 1032.03 473.87 1272.47 216.71 1465.94 212.44" stroke="rgba(169, 169, 169, 1)" stroke-width="2"></path><path d="M155.79 637.7C359.47 617.13 489.11 182.1 835.37 180.85 1181.63 179.6 1338.52 369.46 1514.95 371.25" stroke="rgba(169, 169, 169, 1)" stroke-width="2"></path><path d="M287.44 596.18C459.81 585.45 565.4 273.15 892.8 263.4 1220.2 253.65 1341.11 96.95 1498.16 95.4" stroke="rgba(169, 169, 169, 1)" stroke-width="2"></path></g><defs><mask id="SvgjsMask1002"><rect width="1440" height="560" fill="#ffffff"></rect></mask></defs></svg>