<svg xmlns="http://www.w3.org/2000/svg" version="1.1" xmlns:xlink="http://www.w3.org/1999/xlink" xmlns:svgjs="http://svgjs.dev/svgjs" width="1440" height="560" preserveAspectRatio="none" viewBox="0 0 1440 560"><g clip-path="url(&quot;#SvgjsClipPath1032&quot;)" fill="none"><circle r="93.335" cx="45.02" cy="0.05" stroke="#939393" stroke-opacity="1" stroke-width="2"></circle><circle r="93.335" cx="342.22" cy="368.31" stroke="#939393" stroke-opacity="1" stroke-width="2"></circle><circle r="93.335" cx="727.65" cy="712.26" stroke="#939393" stroke-opacity="1" stroke-width="2"></circle><circle r="126.815" cx="793.52" cy="131.85" stroke="#939393" stroke-opacity="1" stroke-width="2"></circle><circle r="130.78" cx="61.76" cy="177.19" stroke="#939393" stroke-opacity="1" stroke-width="2"></circle><circle r="89.915" cx="736.06" cy="170.46" stroke="#939393" stroke-opacity="1" stroke-width="2"></circle><circle r="144.825" cx="964.21" cy="401.96" stroke="#939393" stroke-opacity="1" stroke-width="2"></circle><circle r="93.165" cx="220.31" cy="290.97" stroke="#939393" stroke-opacity="1" stroke-width="2"></circle><circle r="58.77" cx="98.97" cy="169.61" stroke="#939393" stroke-opacity="1" stroke-width="2"></circle><circle r="185.315" cx="1310.59" cy="403.48" stroke="#939393" stroke-opacity="1" stroke-width="2"></circle><circle r="85.735" cx="923.11" cy="446.12" stroke="#939393" stroke-opacity="1" stroke-width="2"></circle><circle r="146.325" cx="554.17" cy="328.86" stroke="#939393" stroke-opacity="1" stroke-width="2"></circle><circle r="81.565" cx="386.6" cy="204.73" stroke="#939393" stroke-opacity="1" stroke-width="2"></circle><circle r="98.19" cx="118.12" cy="295.44" stroke="#939393" stroke-opacity="1" stroke-width="2"></circle><circle r="142.98" cx="257.42" cy="435.59" stroke="#939393" stroke-opacity="1" stroke-width="2"></circle><circle r="153.595" cx="734.43" cy="373.36" stroke="#939393" stroke-opacity="1" stroke-width="2"></circle><circle r="147.485" cx="1042.84" cy="478.9" stroke="#939393" stroke-opacity="1" stroke-width="2"></circle><circle r="86.755" cx="329.6" cy="288.31" stroke="#939393" stroke-opacity="1" stroke-width="2"></circle><circle r="85.23" cx="517.96" cy="279.47" stroke="#939393" stroke-opacity="1" stroke-width="2"></circle><circle r="153.375" cx="267.42" cy="232.61" stroke="#939393" stroke-opacity="1" stroke-width="2"></circle></g><defs><clipPath id="SvgjsClipPath1032"><rect width="1440" height="560" x="0" y="0"></rect></clipPath></defs></svg>