<svg xmlns="http://www.w3.org/2000/svg" version="1.1" xmlns:xlink="http://www.w3.org/1999/xlink" xmlns:svgjs="http://svgjs.dev/svgjs" width="1440" height="560" preserveAspectRatio="none" viewBox="0 0 1440 560"><g mask="url(&quot;#SvgjsMask1006&quot;)" fill="none"><path d="M-82.21 378.22L-82.21 378.22" stroke="rgba(147, 147, 147, 1)" stroke-width="1.5"></path><path d="M-82.21 378.22L52.55 412.09" stroke="rgba(147, 147, 147, 1)" stroke-width="1.5"></path><path d="M-82.21 378.22L-73.7 556.66" stroke="rgba(147, 147, 147, 1)" stroke-width="1.5"></path><path d="M-73.7 556.66L-73.7 556.66" stroke="rgba(147, 147, 147, 1)" stroke-width="1.5"></path><path d="M-73.7 556.66L56.41 514.38" stroke="rgba(147, 147, 147, 1)" stroke-width="1.5"></path><path d="M-73.7 556.66L52.55 412.09" stroke="rgba(147, 147, 147, 1)" stroke-width="1.5"></path><path d="M-73.7 556.66L102.08 703.98" stroke="rgba(147, 147, 147, 1)" stroke-width="1.5"></path><path d="M-73.7 556.66L198.03 502.98" stroke="rgba(147, 147, 147, 1)" stroke-width="1.5"></path><path d="M-73.7 556.66L208.94 650.22" stroke="rgba(147, 147, 147, 1)" stroke-width="1.5"></path><path d="M52.55 412.09L52.55 412.09" stroke="rgba(147, 147, 147, 1)" stroke-width="1.5"></path><path d="M52.55 412.09L56.41 514.38" stroke="rgba(147, 147, 147, 1)" stroke-width="1.5"></path><path d="M52.55 412.09L198.03 502.98" stroke="rgba(147, 147, 147, 1)" stroke-width="1.5"></path><path d="M52.55 412.09L238.18 405.35" stroke="rgba(147, 147, 147, 1)" stroke-width="1.5"></path><path d="M52.55 412.09L208.94 650.22" stroke="rgba(147, 147, 147, 1)" stroke-width="1.5"></path><path d="M56.41 514.38L56.41 514.38" stroke="rgba(147, 147, 147, 1)" stroke-width="1.5"></path><path d="M56.41 514.38L198.03 502.98" stroke="rgba(147, 147, 147, 1)" stroke-width="1.5"></path><path d="M56.41 514.38L-82.21 378.22" stroke="rgba(147, 147, 147, 1)" stroke-width="1.5"></path><path d="M56.41 514.38L102.08 703.98" stroke="rgba(147, 147, 147, 1)" stroke-width="1.5"></path><path d="M56.41 514.38L208.94 650.22" stroke="rgba(147, 147, 147, 1)" stroke-width="1.5"></path><path d="M102.08 703.98L102.08 703.98" stroke="rgba(147, 147, 147, 1)" stroke-width="1.5"></path><path d="M102.08 703.98L208.94 650.22" stroke="rgba(147, 147, 147, 1)" stroke-width="1.5"></path><path d="M102.08 703.98L198.03 502.98" stroke="rgba(147, 147, 147, 1)" stroke-width="1.5"></path><path d="M102.08 703.98L343.21 645.44" stroke="rgba(147, 147, 147, 1)" stroke-width="1.5"></path><path d="M102.08 703.98L52.55 412.09" stroke="rgba(147, 147, 147, 1)" stroke-width="1.5"></path><path d="M238.18 405.35L238.18 405.35" stroke="rgba(147, 147, 147, 1)" stroke-width="1.5"></path><path d="M238.18 405.35L198.03 502.98" stroke="rgba(147, 147, 147, 1)" stroke-width="1.5"></path><path d="M238.18 405.35L348.52 403.14" stroke="rgba(147, 147, 147, 1)" stroke-width="1.5"></path><path d="M238.18 405.35L393.47 496.87" stroke="rgba(147, 147, 147, 1)" stroke-width="1.5"></path><path d="M238.18 405.35L56.41 514.38" stroke="rgba(147, 147, 147, 1)" stroke-width="1.5"></path><path d="M198.03 502.98L198.03 502.98" stroke="rgba(147, 147, 147, 1)" stroke-width="1.5"></path><path d="M198.03 502.98L208.94 650.22" stroke="rgba(147, 147, 147, 1)" stroke-width="1.5"></path><path d="M198.03 502.98L348.52 403.14" stroke="rgba(147, 147, 147, 1)" stroke-width="1.5"></path><path d="M198.03 502.98L393.47 496.87" stroke="rgba(147, 147, 147, 1)" stroke-width="1.5"></path><path d="M208.94 650.22L208.94 650.22" stroke="rgba(147, 147, 147, 1)" stroke-width="1.5"></path><path d="M208.94 650.22L343.21 645.44" stroke="rgba(147, 147, 147, 1)" stroke-width="1.5"></path><path d="M348.52 403.14L348.52 403.14" stroke="rgba(147, 147, 147, 1)" stroke-width="1.5"></path><path d="M348.52 403.14L393.47 496.87" stroke="rgba(147, 147, 147, 1)" stroke-width="1.5"></path><path d="M348.52 403.14L503.22 501.34" stroke="rgba(147, 147, 147, 1)" stroke-width="1.5"></path><path d="M393.47 496.87L393.47 496.87" stroke="rgba(147, 147, 147, 1)" stroke-width="1.5"></path><path d="M393.47 496.87L503.22 501.34" stroke="rgba(147, 147, 147, 1)" stroke-width="1.5"></path><path d="M393.47 496.87L343.21 645.44" stroke="rgba(147, 147, 147, 1)" stroke-width="1.5"></path><path d="M343.21 645.44L343.21 645.44" stroke="rgba(147, 147, 147, 1)" stroke-width="1.5"></path><path d="M530.79 365.64L530.79 365.64" stroke="rgba(147, 147, 147, 1)" stroke-width="1.5"></path><path d="M530.79 365.64L503.22 501.34" stroke="rgba(147, 147, 147, 1)" stroke-width="1.5"></path><path d="M530.79 365.64L699.19 405.94" stroke="rgba(147, 147, 147, 1)" stroke-width="1.5"></path><path d="M530.79 365.64L348.52 403.14" stroke="rgba(147, 147, 147, 1)" stroke-width="1.5"></path><path d="M530.79 365.64L393.47 496.87" stroke="rgba(147, 147, 147, 1)" stroke-width="1.5"></path><path d="M530.79 365.64L700 503.32" stroke="rgba(147, 147, 147, 1)" stroke-width="1.5"></path><path d="M530.79 365.64L791.52 233.56" stroke="rgba(147, 147, 147, 1)" stroke-width="1.5"></path><path d="M503.22 501.34L503.22 501.34" stroke="rgba(147, 147, 147, 1)" stroke-width="1.5"></path><path d="M503.22 501.34L700 503.32" stroke="rgba(147, 147, 147, 1)" stroke-width="1.5"></path><path d="M503.22 501.34L507.48 708.05" stroke="rgba(147, 147, 147, 1)" stroke-width="1.5"></path><path d="M503.22 501.34L343.21 645.44" stroke="rgba(147, 147, 147, 1)" stroke-width="1.5"></path><path d="M507.48 708.05L507.48 708.05" stroke="rgba(147, 147, 147, 1)" stroke-width="1.5"></path><path d="M507.48 708.05L343.21 645.44" stroke="rgba(147, 147, 147, 1)" stroke-width="1.5"></path><path d="M507.48 708.05L706.8 651.07" stroke="rgba(147, 147, 147, 1)" stroke-width="1.5"></path><path d="M507.48 708.05L393.47 496.87" stroke="rgba(147, 147, 147, 1)" stroke-width="1.5"></path><path d="M507.48 708.05L700 503.32" stroke="rgba(147, 147, 147, 1)" stroke-width="1.5"></path><path d="M507.48 708.05L208.94 650.22" stroke="rgba(147, 147, 147, 1)" stroke-width="1.5"></path><path d="M699.19 405.94L699.19 405.94" stroke="rgba(147, 147, 147, 1)" stroke-width="1.5"></path><path d="M699.19 405.94L700 503.32" stroke="rgba(147, 147, 147, 1)" stroke-width="1.5"></path><path d="M699.19 405.94L826.75 401.77" stroke="rgba(147, 147, 147, 1)" stroke-width="1.5"></path><path d="M699.19 405.94L793.58 514.17" stroke="rgba(147, 147, 147, 1)" stroke-width="1.5"></path><path d="M699.19 405.94L791.52 233.56" stroke="rgba(147, 147, 147, 1)" stroke-width="1.5"></path><path d="M699.19 405.94L503.22 501.34" stroke="rgba(147, 147, 147, 1)" stroke-width="1.5"></path><path d="M700 503.32L700 503.32" stroke="rgba(147, 147, 147, 1)" stroke-width="1.5"></path><path d="M700 503.32L793.58 514.17" stroke="rgba(147, 147, 147, 1)" stroke-width="1.5"></path><path d="M700 503.32L706.8 651.07" stroke="rgba(147, 147, 147, 1)" stroke-width="1.5"></path><path d="M700 503.32L826.75 401.77" stroke="rgba(147, 147, 147, 1)" stroke-width="1.5"></path><path d="M706.8 651.07L706.8 651.07" stroke="rgba(147, 147, 147, 1)" stroke-width="1.5"></path><path d="M706.8 651.07L838 648.96" stroke="rgba(147, 147, 147, 1)" stroke-width="1.5"></path><path d="M706.8 651.07L793.58 514.17" stroke="rgba(147, 147, 147, 1)" stroke-width="1.5"></path><path d="M791.52 233.56L791.52 233.56" stroke="rgba(147, 147, 147, 1)" stroke-width="1.5"></path><path d="M791.52 233.56L949.49 237.61" stroke="rgba(147, 147, 147, 1)" stroke-width="1.5"></path><path d="M791.52 233.56L826.75 401.77" stroke="rgba(147, 147, 147, 1)" stroke-width="1.5"></path><path d="M791.52 233.56L988.23 91.25" stroke="rgba(147, 147, 147, 1)" stroke-width="1.5"></path><path d="M826.75 401.77L826.75 401.77" stroke="rgba(147, 147, 147, 1)" stroke-width="1.5"></path><path d="M826.75 401.77L793.58 514.17" stroke="rgba(147, 147, 147, 1)" stroke-width="1.5"></path><path d="M826.75 401.77L997.72 401.83" stroke="rgba(147, 147, 147, 1)" stroke-width="1.5"></path><path d="M793.58 514.17L793.58 514.17" stroke="rgba(147, 147, 147, 1)" stroke-width="1.5"></path><path d="M793.58 514.17L838 648.96" stroke="rgba(147, 147, 147, 1)" stroke-width="1.5"></path><path d="M793.58 514.17L1006.13 541.56" stroke="rgba(147, 147, 147, 1)" stroke-width="1.5"></path><path d="M838 648.96L838 648.96" stroke="rgba(147, 147, 147, 1)" stroke-width="1.5"></path><path d="M838 648.96L952.67 694.96" stroke="rgba(147, 147, 147, 1)" stroke-width="1.5"></path><path d="M838 648.96L1006.13 541.56" stroke="rgba(147, 147, 147, 1)" stroke-width="1.5"></path><path d="M838 648.96L700 503.32" stroke="rgba(147, 147, 147, 1)" stroke-width="1.5"></path><path d="M838 648.96L826.75 401.77" stroke="rgba(147, 147, 147, 1)" stroke-width="1.5"></path><path d="M995.7 -100.25L995.7 -100.25" stroke="rgba(147, 147, 147, 1)" stroke-width="1.5"></path><path d="M995.7 -100.25L1130.81 -84.99" stroke="rgba(147, 147, 147, 1)" stroke-width="1.5"></path><path d="M995.7 -100.25L988.23 91.25" stroke="rgba(147, 147, 147, 1)" stroke-width="1.5"></path><path d="M988.23 91.25L988.23 91.25" stroke="rgba(147, 147, 147, 1)" stroke-width="1.5"></path><path d="M988.23 91.25L949.49 237.61" stroke="rgba(147, 147, 147, 1)" stroke-width="1.5"></path><path d="M988.23 91.25L1160.03 49.05" stroke="rgba(147, 147, 147, 1)" stroke-width="1.5"></path><path d="M988.23 91.25L1096.59 261.77" stroke="rgba(147, 147, 147, 1)" stroke-width="1.5"></path><path d="M949.49 237.61L949.49 237.61" stroke="rgba(147, 147, 147, 1)" stroke-width="1.5"></path><path d="M949.49 237.61L1096.59 261.77" stroke="rgba(147, 147, 147, 1)" stroke-width="1.5"></path><path d="M949.49 237.61L997.72 401.83" stroke="rgba(147, 147, 147, 1)" stroke-width="1.5"></path><path d="M997.72 401.83L997.72 401.83" stroke="rgba(147, 147, 147, 1)" stroke-width="1.5"></path><path d="M997.72 401.83L1131.81 400.38" stroke="rgba(147, 147, 147, 1)" stroke-width="1.5"></path><path d="M997.72 401.83L1006.13 541.56" stroke="rgba(147, 147, 147, 1)" stroke-width="1.5"></path><path d="M1006.13 541.56L1006.13 541.56" stroke="rgba(147, 147, 147, 1)" stroke-width="1.5"></path><path d="M1006.13 541.56L1158.21 519.53" stroke="rgba(147, 147, 147, 1)" stroke-width="1.5"></path><path d="M1006.13 541.56L952.67 694.96" stroke="rgba(147, 147, 147, 1)" stroke-width="1.5"></path><path d="M1006.13 541.56L1131.81 400.38" stroke="rgba(147, 147, 147, 1)" stroke-width="1.5"></path><path d="M1006.13 541.56L1161.19 657.09" stroke="rgba(147, 147, 147, 1)" stroke-width="1.5"></path><path d="M952.67 694.96L952.67 694.96" stroke="rgba(147, 147, 147, 1)" stroke-width="1.5"></path><path d="M952.67 694.96L1161.19 657.09" stroke="rgba(147, 147, 147, 1)" stroke-width="1.5"></path><path d="M952.67 694.96L793.58 514.17" stroke="rgba(147, 147, 147, 1)" stroke-width="1.5"></path><path d="M1130.81 -84.99L1130.81 -84.99" stroke="rgba(147, 147, 147, 1)" stroke-width="1.5"></path><path d="M1130.81 -84.99L1258.04 -40.01" stroke="rgba(147, 147, 147, 1)" stroke-width="1.5"></path><path d="M1160.03 49.05L1160.03 49.05" stroke="rgba(147, 147, 147, 1)" stroke-width="1.5"></path><path d="M1160.03 49.05L1241.26 100.25" stroke="rgba(147, 147, 147, 1)" stroke-width="1.5"></path><path d="M1160.03 49.05L1258.04 -40.01" stroke="rgba(147, 147, 147, 1)" stroke-width="1.5"></path><path d="M1096.59 261.77L1096.59 261.77" stroke="rgba(147, 147, 147, 1)" stroke-width="1.5"></path><path d="M1096.59 261.77L1131.81 400.38" stroke="rgba(147, 147, 147, 1)" stroke-width="1.5"></path><path d="M1096.59 261.77L997.72 401.83" stroke="rgba(147, 147, 147, 1)" stroke-width="1.5"></path><path d="M1131.81 400.38L1131.81 400.38" stroke="rgba(147, 147, 147, 1)" stroke-width="1.5"></path><path d="M1131.81 400.38L1158.21 519.53" stroke="rgba(147, 147, 147, 1)" stroke-width="1.5"></path><path d="M1131.81 400.38L1293.91 348.08" stroke="rgba(147, 147, 147, 1)" stroke-width="1.5"></path><path d="M1131.81 400.38L1266.56 561.34" stroke="rgba(147, 147, 147, 1)" stroke-width="1.5"></path><path d="M1158.21 519.53L1158.21 519.53" stroke="rgba(147, 147, 147, 1)" stroke-width="1.5"></path><path d="M1158.21 519.53L1266.56 561.34" stroke="rgba(147, 147, 147, 1)" stroke-width="1.5"></path><path d="M1158.21 519.53L1161.19 657.09" stroke="rgba(147, 147, 147, 1)" stroke-width="1.5"></path><path d="M1158.21 519.53L997.72 401.83" stroke="rgba(147, 147, 147, 1)" stroke-width="1.5"></path><path d="M1158.21 519.53L1293.91 348.08" stroke="rgba(147, 147, 147, 1)" stroke-width="1.5"></path><path d="M1161.19 657.09L1161.19 657.09" stroke="rgba(147, 147, 147, 1)" stroke-width="1.5"></path><path d="M1161.19 657.09L1293.23 695.9" stroke="rgba(147, 147, 147, 1)" stroke-width="1.5"></path><path d="M1161.19 657.09L1266.56 561.34" stroke="rgba(147, 147, 147, 1)" stroke-width="1.5"></path><path d="M1258.04 -40.01L1258.04 -40.01" stroke="rgba(147, 147, 147, 1)" stroke-width="1.5"></path><path d="M1241.26 100.25L1241.26 100.25" stroke="rgba(147, 147, 147, 1)" stroke-width="1.5"></path><path d="M1241.26 100.25L1258.04 -40.01" stroke="rgba(147, 147, 147, 1)" stroke-width="1.5"></path><path d="M1241.26 100.25L1431.45 43.01" stroke="rgba(147, 147, 147, 1)" stroke-width="1.5"></path><path d="M1293.91 348.08L1293.91 348.08" stroke="rgba(147, 147, 147, 1)" stroke-width="1.5"></path><path d="M1293.91 348.08L1438.98 360.16" stroke="rgba(147, 147, 147, 1)" stroke-width="1.5"></path><path d="M1293.91 348.08L1418.01 245.81" stroke="rgba(147, 147, 147, 1)" stroke-width="1.5"></path><path d="M1293.91 348.08L1266.56 561.34" stroke="rgba(147, 147, 147, 1)" stroke-width="1.5"></path><path d="M1293.91 348.08L1096.59 261.77" stroke="rgba(147, 147, 147, 1)" stroke-width="1.5"></path><path d="M1266.56 561.34L1266.56 561.34" stroke="rgba(147, 147, 147, 1)" stroke-width="1.5"></path><path d="M1266.56 561.34L1293.23 695.9" stroke="rgba(147, 147, 147, 1)" stroke-width="1.5"></path><path d="M1293.23 695.9L1293.23 695.9" stroke="rgba(147, 147, 147, 1)" stroke-width="1.5"></path><path d="M1293.23 695.9L1439.07 693.48" stroke="rgba(147, 147, 147, 1)" stroke-width="1.5"></path><path d="M1293.23 695.9L1158.21 519.53" stroke="rgba(147, 147, 147, 1)" stroke-width="1.5"></path><path d="M1443.78 -38.56L1443.78 -38.56" stroke="rgba(147, 147, 147, 1)" stroke-width="1.5"></path><path d="M1443.78 -38.56L1431.45 43.01" stroke="rgba(147, 147, 147, 1)" stroke-width="1.5"></path><path d="M1431.45 43.01L1431.45 43.01" stroke="rgba(147, 147, 147, 1)" stroke-width="1.5"></path><path d="M1431.45 43.01L1563.56 100.31" stroke="rgba(147, 147, 147, 1)" stroke-width="1.5"></path><path d="M1431.45 43.01L1587.63 -64" stroke="rgba(147, 147, 147, 1)" stroke-width="1.5"></path><path d="M1431.45 43.01L1258.04 -40.01" stroke="rgba(147, 147, 147, 1)" stroke-width="1.5"></path><path d="M1418.01 245.81L1418.01 245.81" stroke="rgba(147, 147, 147, 1)" stroke-width="1.5"></path><path d="M1418.01 245.81L1438.98 360.16" stroke="rgba(147, 147, 147, 1)" stroke-width="1.5"></path><path d="M1438.98 360.16L1438.98 360.16" stroke="rgba(147, 147, 147, 1)" stroke-width="1.5"></path><path d="M1438.98 360.16L1456.08 520.63" stroke="rgba(147, 147, 147, 1)" stroke-width="1.5"></path><path d="M1456.08 520.63L1456.08 520.63" stroke="rgba(147, 147, 147, 1)" stroke-width="1.5"></path><path d="M1456.08 520.63L1594.57 504.42" stroke="rgba(147, 147, 147, 1)" stroke-width="1.5"></path><path d="M1456.08 520.63L1439.07 693.48" stroke="rgba(147, 147, 147, 1)" stroke-width="1.5"></path><path d="M1456.08 520.63L1579.47 662.83" stroke="rgba(147, 147, 147, 1)" stroke-width="1.5"></path><path d="M1456.08 520.63L1266.56 561.34" stroke="rgba(147, 147, 147, 1)" stroke-width="1.5"></path><path d="M1439.07 693.48L1439.07 693.48" stroke="rgba(147, 147, 147, 1)" stroke-width="1.5"></path><path d="M1439.07 693.48L1579.47 662.83" stroke="rgba(147, 147, 147, 1)" stroke-width="1.5"></path><path d="M1439.07 693.48L1266.56 561.34" stroke="rgba(147, 147, 147, 1)" stroke-width="1.5"></path><path d="M1439.07 693.48L1594.57 504.42" stroke="rgba(147, 147, 147, 1)" stroke-width="1.5"></path><path d="M1587.63 -64L1587.63 -64" stroke="rgba(147, 147, 147, 1)" stroke-width="1.5"></path><path d="M1587.63 -64L1443.78 -38.56" stroke="rgba(147, 147, 147, 1)" stroke-width="1.5"></path><path d="M1587.63 -64L1563.56 100.31" stroke="rgba(147, 147, 147, 1)" stroke-width="1.5"></path><path d="M1587.63 -64L1547.92 222.79" stroke="rgba(147, 147, 147, 1)" stroke-width="1.5"></path><path d="M1563.56 100.31L1563.56 100.31" stroke="rgba(147, 147, 147, 1)" stroke-width="1.5"></path><path d="M1563.56 100.31L1547.92 222.79" stroke="rgba(147, 147, 147, 1)" stroke-width="1.5"></path><path d="M1547.92 222.79L1547.92 222.79" stroke="rgba(147, 147, 147, 1)" stroke-width="1.5"></path><path d="M1547.92 222.79L1418.01 245.81" stroke="rgba(147, 147, 147, 1)" stroke-width="1.5"></path><path d="M1547.92 222.79L1438.98 360.16" stroke="rgba(147, 147, 147, 1)" stroke-width="1.5"></path><path d="M1547.92 222.79L1431.45 43.01" stroke="rgba(147, 147, 147, 1)" stroke-width="1.5"></path><path d="M1547.92 222.79L1443.78 -38.56" stroke="rgba(147, 147, 147, 1)" stroke-width="1.5"></path><path d="M1594.57 504.42L1594.57 504.42" stroke="rgba(147, 147, 147, 1)" stroke-width="1.5"></path><path d="M1594.57 504.42L1579.47 662.83" stroke="rgba(147, 147, 147, 1)" stroke-width="1.5"></path><path d="M1594.57 504.42L1438.98 360.16" stroke="rgba(147, 147, 147, 1)" stroke-width="1.5"></path><path d="M1594.57 504.42L1547.92 222.79" stroke="rgba(147, 147, 147, 1)" stroke-width="1.5"></path><path d="M1594.57 504.42L1418.01 245.81" stroke="rgba(147, 147, 147, 1)" stroke-width="1.5"></path><path d="M1579.47 662.83L1579.47 662.83" stroke="rgba(147, 147, 147, 1)" stroke-width="1.5"></path><circle r="5" cx="-82.21" cy="378.22" fill="rgba(147, 147, 147, 1)"></circle><circle r="5" cx="-73.7" cy="556.66" fill="rgba(147, 147, 147, 1)"></circle><circle r="5" cx="52.55" cy="412.09" fill="rgba(147, 147, 147, 1)"></circle><circle r="5" cx="56.41" cy="514.38" fill="rgba(147, 147, 147, 1)"></circle><circle r="5" cx="102.08" cy="703.98" fill="rgba(147, 147, 147, 1)"></circle><circle r="5" cx="238.18" cy="405.35" fill="rgba(147, 147, 147, 1)"></circle><circle r="5" cx="198.03" cy="502.98" fill="rgba(147, 147, 147, 1)"></circle><circle r="5" cx="208.94" cy="650.22" fill="rgba(147, 147, 147, 1)"></circle><circle r="5" cx="348.52" cy="403.14" fill="rgba(147, 147, 147, 1)"></circle><circle r="5" cx="393.47" cy="496.87" fill="rgba(147, 147, 147, 1)"></circle><circle r="5" cx="343.21" cy="645.44" fill="rgba(147, 147, 147, 1)"></circle><circle r="5" cx="530.79" cy="365.64" fill="rgba(147, 147, 147, 1)"></circle><circle r="5" cx="503.22" cy="501.34" fill="rgba(147, 147, 147, 1)"></circle><circle r="5" cx="507.48" cy="708.05" fill="rgba(147, 147, 147, 1)"></circle><circle r="5" cx="699.19" cy="405.94" fill="rgba(147, 147, 147, 1)"></circle><circle r="5" cx="700" cy="503.32" fill="rgba(147, 147, 147, 1)"></circle><circle r="5" cx="706.8" cy="651.07" fill="rgba(147, 147, 147, 1)"></circle><circle r="5" cx="791.52" cy="233.56" fill="rgba(147, 147, 147, 1)"></circle><circle r="5" cx="826.75" cy="401.77" fill="rgba(147, 147, 147, 1)"></circle><circle r="5" cx="793.58" cy="514.17" fill="rgba(147, 147, 147, 1)"></circle><circle r="5" cx="838" cy="648.96" fill="rgba(147, 147, 147, 1)"></circle><circle r="5" cx="995.7" cy="-100.25" fill="rgba(147, 147, 147, 1)"></circle><circle r="5" cx="988.23" cy="91.25" fill="rgba(147, 147, 147, 1)"></circle><circle r="5" cx="949.49" cy="237.61" fill="rgba(147, 147, 147, 1)"></circle><circle r="5" cx="997.72" cy="401.83" fill="rgba(147, 147, 147, 1)"></circle><circle r="5" cx="1006.13" cy="541.56" fill="rgba(147, 147, 147, 1)"></circle><circle r="5" cx="952.67" cy="694.96" fill="rgba(147, 147, 147, 1)"></circle><circle r="5" cx="1130.81" cy="-84.99" fill="rgba(147, 147, 147, 1)"></circle><circle r="5" cx="1160.03" cy="49.05" fill="rgba(147, 147, 147, 1)"></circle><circle r="5" cx="1096.59" cy="261.77" fill="rgba(147, 147, 147, 1)"></circle><circle r="5" cx="1131.81" cy="400.38" fill="rgba(147, 147, 147, 1)"></circle><circle r="5" cx="1158.21" cy="519.53" fill="rgba(147, 147, 147, 1)"></circle><circle r="5" cx="1161.19" cy="657.09" fill="rgba(147, 147, 147, 1)"></circle><circle r="5" cx="1258.04" cy="-40.01" fill="rgba(147, 147, 147, 1)"></circle><circle r="5" cx="1241.26" cy="100.25" fill="rgba(147, 147, 147, 1)"></circle><circle r="5" cx="1293.91" cy="348.08" fill="rgba(147, 147, 147, 1)"></circle><circle r="5" cx="1266.56" cy="561.34" fill="rgba(147, 147, 147, 1)"></circle><circle r="5" cx="1293.23" cy="695.9" fill="rgba(147, 147, 147, 1)"></circle><circle r="5" cx="1443.78" cy="-38.56" fill="rgba(147, 147, 147, 1)"></circle><circle r="5" cx="1431.45" cy="43.01" fill="rgba(147, 147, 147, 1)"></circle><circle r="5" cx="1418.01" cy="245.81" fill="rgba(147, 147, 147, 1)"></circle><circle r="5" cx="1438.98" cy="360.16" fill="rgba(147, 147, 147, 1)"></circle><circle r="5" cx="1456.08" cy="520.63" fill="rgba(147, 147, 147, 1)"></circle><circle r="5" cx="1439.07" cy="693.48" fill="rgba(147, 147, 147, 1)"></circle><circle r="5" cx="1587.63" cy="-64" fill="rgba(147, 147, 147, 1)"></circle><circle r="5" cx="1563.56" cy="100.31" fill="rgba(147, 147, 147, 1)"></circle><circle r="5" cx="1547.92" cy="222.79" fill="rgba(147, 147, 147, 1)"></circle><circle r="5" cx="1594.57" cy="504.42" fill="rgba(147, 147, 147, 1)"></circle><circle r="5" cx="1579.47" cy="662.83" fill="rgba(147, 147, 147, 1)"></circle><path d="M-78.31 536.34L-78.31 536.34" stroke="hsl(0, 0%, 86.2%)" stroke-width="1.5"></path><path d="M-78.31 536.34L-47.26 663.88" stroke="hsl(0, 0%, 86.2%)" stroke-width="1.5"></path><path d="M-78.31 536.34L97.31 489.76" stroke="hsl(0, 0%, 86.2%)" stroke-width="1.5"></path><path d="M101.93 688.4L101.93 688.4" stroke="hsl(0, 0%, 86.2%)" stroke-width="1.5"></path><path d="M101.93 688.4L237.79 699.56" stroke="hsl(0, 0%, 86.2%)" stroke-width="1.5"></path><path d="M101.93 688.4L-47.26 663.88" stroke="hsl(0, 0%, 86.2%)" stroke-width="1.5"></path><path d="M101.93 688.4L97.31 489.76" stroke="hsl(0, 0%, 86.2%)" stroke-width="1.5"></path><path d="M101.93 688.4L-78.31 536.34" stroke="hsl(0, 0%, 86.2%)" stroke-width="1.5"></path><path d="M101.93 688.4L240.38 487.64" stroke="hsl(0, 0%, 86.2%)" stroke-width="1.5"></path><path d="M237.79 699.56L237.79 699.56" stroke="hsl(0, 0%, 86.2%)" stroke-width="1.5"></path><path d="M237.79 699.56L353.26 642.73" stroke="hsl(0, 0%, 86.2%)" stroke-width="1.5"></path><path d="M237.79 699.56L240.38 487.64" stroke="hsl(0, 0%, 86.2%)" stroke-width="1.5"></path><path d="M237.79 699.56L359.81 489.57" stroke="hsl(0, 0%, 86.2%)" stroke-width="1.5"></path><path d="M237.79 699.56L97.31 489.76" stroke="hsl(0, 0%, 86.2%)" stroke-width="1.5"></path><path d="M359.81 489.57L359.81 489.57" stroke="hsl(0, 0%, 86.2%)" stroke-width="1.5"></path><path d="M359.81 489.57L240.38 487.64" stroke="hsl(0, 0%, 86.2%)" stroke-width="1.5"></path><path d="M359.81 489.57L492.79 537.74" stroke="hsl(0, 0%, 86.2%)" stroke-width="1.5"></path><path d="M359.81 489.57L353.26 642.73" stroke="hsl(0, 0%, 86.2%)" stroke-width="1.5"></path><path d="M359.81 489.57L498.73 675.83" stroke="hsl(0, 0%, 86.2%)" stroke-width="1.5"></path><path d="M814.7 338.59L814.7 338.59" stroke="hsl(0, 0%, 86.2%)" stroke-width="1.5"></path><path d="M814.7 338.59L816.76 503.41" stroke="hsl(0, 0%, 86.2%)" stroke-width="1.5"></path><path d="M814.7 338.59L994 384.21" stroke="hsl(0, 0%, 86.2%)" stroke-width="1.5"></path><path d="M814.7 338.59L662.4 511.46" stroke="hsl(0, 0%, 86.2%)" stroke-width="1.5"></path><path d="M814.7 338.59L979.34 523.31" stroke="hsl(0, 0%, 86.2%)" stroke-width="1.5"></path><path d="M814.7 338.59L1089.2 373.28" stroke="hsl(0, 0%, 86.2%)" stroke-width="1.5"></path><path d="M814.7 338.59L1105.5 507.86" stroke="hsl(0, 0%, 86.2%)" stroke-width="1.5"></path><path d="M1409.18 -76.94L1409.18 -76.94" stroke="hsl(0, 0%, 86.2%)" stroke-width="1.5"></path><path d="M1409.18 -76.94L1252.88 -42.1" stroke="hsl(0, 0%, 86.2%)" stroke-width="1.5"></path><path d="M1409.18 -76.94L1575.67 -93.11" stroke="hsl(0, 0%, 86.2%)" stroke-width="1.5"></path><path d="M1409.18 -76.94L1441.72 103.58" stroke="hsl(0, 0%, 86.2%)" stroke-width="1.5"></path><path d="M1409.18 -76.94L1240.81 65.85" stroke="hsl(0, 0%, 86.2%)" stroke-width="1.5"></path><path d="M1415.77 230.02L1415.77 230.02" stroke="hsl(0, 0%, 86.2%)" stroke-width="1.5"></path><path d="M1415.77 230.02L1441.72 103.58" stroke="hsl(0, 0%, 86.2%)" stroke-width="1.5"></path><path d="M1415.77 230.02L1288.82 257.44" stroke="hsl(0, 0%, 86.2%)" stroke-width="1.5"></path><path d="M1415.77 230.02L1396.15 374.06" stroke="hsl(0, 0%, 86.2%)" stroke-width="1.5"></path><path d="M1415.77 230.02L1580.91 190.95" stroke="hsl(0, 0%, 86.2%)" stroke-width="1.5"></path><path d="M1415.77 230.02L1294 381.14" stroke="hsl(0, 0%, 86.2%)" stroke-width="1.5"></path><path d="M1415.77 230.02L1595.98 360.88" stroke="hsl(0, 0%, 86.2%)" stroke-width="1.5"></path><path d="M-47.26 663.88L-47.26 663.88" stroke="hsl(0, 0%, 86.2%)" stroke-width="1.5"></path><path d="M-47.26 663.88L97.31 489.76" stroke="hsl(0, 0%, 86.2%)" stroke-width="1.5"></path><path d="M-47.26 663.88L237.79 699.56" stroke="hsl(0, 0%, 86.2%)" stroke-width="1.5"></path><path d="M-47.26 663.88L240.38 487.64" stroke="hsl(0, 0%, 86.2%)" stroke-width="1.5"></path><path d="M-47.26 663.88L353.26 642.73" stroke="hsl(0, 0%, 86.2%)" stroke-width="1.5"></path><path d="M97.31 489.76L97.31 489.76" stroke="hsl(0, 0%, 86.2%)" stroke-width="1.5"></path><path d="M97.31 489.76L240.38 487.64" stroke="hsl(0, 0%, 86.2%)" stroke-width="1.5"></path><path d="M240.38 487.64L240.38 487.64" stroke="hsl(0, 0%, 86.2%)" stroke-width="1.5"></path><path d="M240.38 487.64L353.26 642.73" stroke="hsl(0, 0%, 86.2%)" stroke-width="1.5"></path><path d="M240.38 487.64L492.79 537.74" stroke="hsl(0, 0%, 86.2%)" stroke-width="1.5"></path><path d="M353.26 642.73L353.26 642.73" stroke="hsl(0, 0%, 86.2%)" stroke-width="1.5"></path><path d="M353.26 642.73L498.73 675.83" stroke="hsl(0, 0%, 86.2%)" stroke-width="1.5"></path><path d="M492.79 537.74L492.79 537.74" stroke="hsl(0, 0%, 86.2%)" stroke-width="1.5"></path><path d="M492.79 537.74L498.73 675.83" stroke="hsl(0, 0%, 86.2%)" stroke-width="1.5"></path><path d="M492.79 537.74L662.4 511.46" stroke="hsl(0, 0%, 86.2%)" stroke-width="1.5"></path><path d="M492.79 537.74L353.26 642.73" stroke="hsl(0, 0%, 86.2%)" stroke-width="1.5"></path><path d="M498.73 675.83L498.73 675.83" stroke="hsl(0, 0%, 86.2%)" stroke-width="1.5"></path><path d="M498.73 675.83L680.77 649.95" stroke="hsl(0, 0%, 86.2%)" stroke-width="1.5"></path><path d="M498.73 675.83L662.4 511.46" stroke="hsl(0, 0%, 86.2%)" stroke-width="1.5"></path><path d="M662.4 511.46L662.4 511.46" stroke="hsl(0, 0%, 86.2%)" stroke-width="1.5"></path><path d="M662.4 511.46L680.77 649.95" stroke="hsl(0, 0%, 86.2%)" stroke-width="1.5"></path><path d="M680.77 649.95L680.77 649.95" stroke="hsl(0, 0%, 86.2%)" stroke-width="1.5"></path><path d="M680.77 649.95L822.28 690.94" stroke="hsl(0, 0%, 86.2%)" stroke-width="1.5"></path><path d="M680.77 649.95L816.76 503.41" stroke="hsl(0, 0%, 86.2%)" stroke-width="1.5"></path><path d="M816.76 503.41L816.76 503.41" stroke="hsl(0, 0%, 86.2%)" stroke-width="1.5"></path><path d="M816.76 503.41L662.4 511.46" stroke="hsl(0, 0%, 86.2%)" stroke-width="1.5"></path><path d="M816.76 503.41L979.34 523.31" stroke="hsl(0, 0%, 86.2%)" stroke-width="1.5"></path><path d="M822.28 690.94L822.28 690.94" stroke="hsl(0, 0%, 86.2%)" stroke-width="1.5"></path><path d="M822.28 690.94L988.43 654.22" stroke="hsl(0, 0%, 86.2%)" stroke-width="1.5"></path><path d="M822.28 690.94L816.76 503.41" stroke="hsl(0, 0%, 86.2%)" stroke-width="1.5"></path><path d="M822.28 690.94L979.34 523.31" stroke="hsl(0, 0%, 86.2%)" stroke-width="1.5"></path><path d="M822.28 690.94L662.4 511.46" stroke="hsl(0, 0%, 86.2%)" stroke-width="1.5"></path><path d="M994 384.21L994 384.21" stroke="hsl(0, 0%, 86.2%)" stroke-width="1.5"></path><path d="M994 384.21L1089.2 373.28" stroke="hsl(0, 0%, 86.2%)" stroke-width="1.5"></path><path d="M994 384.21L979.34 523.31" stroke="hsl(0, 0%, 86.2%)" stroke-width="1.5"></path><path d="M994 384.21L1105.5 507.86" stroke="hsl(0, 0%, 86.2%)" stroke-width="1.5"></path><path d="M979.34 523.31L979.34 523.31" stroke="hsl(0, 0%, 86.2%)" stroke-width="1.5"></path><path d="M979.34 523.31L1105.5 507.86" stroke="hsl(0, 0%, 86.2%)" stroke-width="1.5"></path><path d="M979.34 523.31L988.43 654.22" stroke="hsl(0, 0%, 86.2%)" stroke-width="1.5"></path><path d="M988.43 654.22L988.43 654.22" stroke="hsl(0, 0%, 86.2%)" stroke-width="1.5"></path><path d="M988.43 654.22L1130.97 698.43" stroke="hsl(0, 0%, 86.2%)" stroke-width="1.5"></path><path d="M988.43 654.22L1105.5 507.86" stroke="hsl(0, 0%, 86.2%)" stroke-width="1.5"></path><path d="M1089.2 373.28L1089.2 373.28" stroke="hsl(0, 0%, 86.2%)" stroke-width="1.5"></path><path d="M1089.2 373.28L1105.5 507.86" stroke="hsl(0, 0%, 86.2%)" stroke-width="1.5"></path><path d="M1089.2 373.28L979.34 523.31" stroke="hsl(0, 0%, 86.2%)" stroke-width="1.5"></path><path d="M1089.2 373.28L1294 381.14" stroke="hsl(0, 0%, 86.2%)" stroke-width="1.5"></path><path d="M1089.2 373.28L1261.12 511.32" stroke="hsl(0, 0%, 86.2%)" stroke-width="1.5"></path><path d="M1089.2 373.28L1288.82 257.44" stroke="hsl(0, 0%, 86.2%)" stroke-width="1.5"></path><path d="M1105.5 507.86L1105.5 507.86" stroke="hsl(0, 0%, 86.2%)" stroke-width="1.5"></path><path d="M1105.5 507.86L1261.12 511.32" stroke="hsl(0, 0%, 86.2%)" stroke-width="1.5"></path><path d="M1130.97 698.43L1130.97 698.43" stroke="hsl(0, 0%, 86.2%)" stroke-width="1.5"></path><path d="M1130.97 698.43L1309.99 644.68" stroke="hsl(0, 0%, 86.2%)" stroke-width="1.5"></path><path d="M1130.97 698.43L1105.5 507.86" stroke="hsl(0, 0%, 86.2%)" stroke-width="1.5"></path><path d="M1252.88 -42.1L1252.88 -42.1" stroke="hsl(0, 0%, 86.2%)" stroke-width="1.5"></path><path d="M1252.88 -42.1L1240.81 65.85" stroke="hsl(0, 0%, 86.2%)" stroke-width="1.5"></path><path d="M1252.88 -42.1L1441.72 103.58" stroke="hsl(0, 0%, 86.2%)" stroke-width="1.5"></path><path d="M1252.88 -42.1L1288.82 257.44" stroke="hsl(0, 0%, 86.2%)" stroke-width="1.5"></path><path d="M1240.81 65.85L1240.81 65.85" stroke="hsl(0, 0%, 86.2%)" stroke-width="1.5"></path><path d="M1240.81 65.85L1288.82 257.44" stroke="hsl(0, 0%, 86.2%)" stroke-width="1.5"></path><path d="M1240.81 65.85L1441.72 103.58" stroke="hsl(0, 0%, 86.2%)" stroke-width="1.5"></path><path d="M1288.82 257.44L1288.82 257.44" stroke="hsl(0, 0%, 86.2%)" stroke-width="1.5"></path><path d="M1288.82 257.44L1294 381.14" stroke="hsl(0, 0%, 86.2%)" stroke-width="1.5"></path><path d="M1294 381.14L1294 381.14" stroke="hsl(0, 0%, 86.2%)" stroke-width="1.5"></path><path d="M1294 381.14L1396.15 374.06" stroke="hsl(0, 0%, 86.2%)" stroke-width="1.5"></path><path d="M1294 381.14L1261.12 511.32" stroke="hsl(0, 0%, 86.2%)" stroke-width="1.5"></path><path d="M1294 381.14L1462.48 498.89" stroke="hsl(0, 0%, 86.2%)" stroke-width="1.5"></path><path d="M1261.12 511.32L1261.12 511.32" stroke="hsl(0, 0%, 86.2%)" stroke-width="1.5"></path><path d="M1261.12 511.32L1309.99 644.68" stroke="hsl(0, 0%, 86.2%)" stroke-width="1.5"></path><path d="M1309.99 644.68L1309.99 644.68" stroke="hsl(0, 0%, 86.2%)" stroke-width="1.5"></path><path d="M1309.99 644.68L1462.48 498.89" stroke="hsl(0, 0%, 86.2%)" stroke-width="1.5"></path><path d="M1309.99 644.68L1105.5 507.86" stroke="hsl(0, 0%, 86.2%)" stroke-width="1.5"></path><path d="M1441.72 103.58L1441.72 103.58" stroke="hsl(0, 0%, 86.2%)" stroke-width="1.5"></path><path d="M1441.72 103.58L1580.91 190.95" stroke="hsl(0, 0%, 86.2%)" stroke-width="1.5"></path><path d="M1441.72 103.58L1288.82 257.44" stroke="hsl(0, 0%, 86.2%)" stroke-width="1.5"></path><path d="M1396.15 374.06L1396.15 374.06" stroke="hsl(0, 0%, 86.2%)" stroke-width="1.5"></path><path d="M1396.15 374.06L1462.48 498.89" stroke="hsl(0, 0%, 86.2%)" stroke-width="1.5"></path><path d="M1396.15 374.06L1288.82 257.44" stroke="hsl(0, 0%, 86.2%)" stroke-width="1.5"></path><path d="M1396.15 374.06L1261.12 511.32" stroke="hsl(0, 0%, 86.2%)" stroke-width="1.5"></path><path d="M1396.15 374.06L1595.98 360.88" stroke="hsl(0, 0%, 86.2%)" stroke-width="1.5"></path><path d="M1462.48 498.89L1462.48 498.89" stroke="hsl(0, 0%, 86.2%)" stroke-width="1.5"></path><path d="M1462.48 498.89L1582.76 526.46" stroke="hsl(0, 0%, 86.2%)" stroke-width="1.5"></path><path d="M1462.48 498.89L1595.98 360.88" stroke="hsl(0, 0%, 86.2%)" stroke-width="1.5"></path><path d="M1462.48 498.89L1261.12 511.32" stroke="hsl(0, 0%, 86.2%)" stroke-width="1.5"></path><path d="M1575.67 -93.11L1575.67 -93.11" stroke="hsl(0, 0%, 86.2%)" stroke-width="1.5"></path><path d="M1575.67 -93.11L1441.72 103.58" stroke="hsl(0, 0%, 86.2%)" stroke-width="1.5"></path><path d="M1575.67 -93.11L1580.91 190.95" stroke="hsl(0, 0%, 86.2%)" stroke-width="1.5"></path><path d="M1575.67 -93.11L1252.88 -42.1" stroke="hsl(0, 0%, 86.2%)" stroke-width="1.5"></path><path d="M1580.91 190.95L1580.91 190.95" stroke="hsl(0, 0%, 86.2%)" stroke-width="1.5"></path><path d="M1595.98 360.88L1595.98 360.88" stroke="hsl(0, 0%, 86.2%)" stroke-width="1.5"></path><path d="M1595.98 360.88L1582.76 526.46" stroke="hsl(0, 0%, 86.2%)" stroke-width="1.5"></path><path d="M1595.98 360.88L1580.91 190.95" stroke="hsl(0, 0%, 86.2%)" stroke-width="1.5"></path><path d="M1582.76 526.46L1582.76 526.46" stroke="hsl(0, 0%, 86.2%)" stroke-width="1.5"></path><circle r="25" cx="-78.31" cy="536.34" fill="url(&quot;#SvgjsRadialGradient1007&quot;)"></circle><circle r="25" cx="101.93" cy="688.4" fill="url(&quot;#SvgjsRadialGradient1007&quot;)"></circle><circle r="25" cx="237.79" cy="699.56" fill="url(&quot;#SvgjsRadialGradient1007&quot;)"></circle><circle r="25" cx="359.81" cy="489.57" fill="url(&quot;#SvgjsRadialGradient1007&quot;)"></circle><circle r="25" cx="814.7" cy="338.59" fill="url(&quot;#SvgjsRadialGradient1007&quot;)"></circle><circle r="25" cx="1409.18" cy="-76.94" fill="url(&quot;#SvgjsRadialGradient1007&quot;)"></circle><circle r="25" cx="1415.77" cy="230.02" fill="url(&quot;#SvgjsRadialGradient1007&quot;)"></circle><circle r="5" cx="-47.26" cy="663.88" fill="#d4d4d4"></circle><circle r="5" cx="97.31" cy="489.76" fill="#d4d4d4"></circle><circle r="5" cx="240.38" cy="487.64" fill="#d4d4d4"></circle><circle r="5" cx="353.26" cy="642.73" fill="#d4d4d4"></circle><circle r="5" cx="492.79" cy="537.74" fill="#d4d4d4"></circle><circle r="5" cx="498.73" cy="675.83" fill="#d4d4d4"></circle><circle r="5" cx="662.4" cy="511.46" fill="#d4d4d4"></circle><circle r="5" cx="680.77" cy="649.95" fill="#d4d4d4"></circle><circle r="5" cx="816.76" cy="503.41" fill="#d4d4d4"></circle><circle r="5" cx="822.28" cy="690.94" fill="#d4d4d4"></circle><circle r="5" cx="994" cy="384.21" fill="#d4d4d4"></circle><circle r="5" cx="979.34" cy="523.31" fill="#d4d4d4"></circle><circle r="5" cx="988.43" cy="654.22" fill="#d4d4d4"></circle><circle r="5" cx="1089.2" cy="373.28" fill="#d4d4d4"></circle><circle r="5" cx="1105.5" cy="507.86" fill="#d4d4d4"></circle><circle r="5" cx="1130.97" cy="698.43" fill="#d4d4d4"></circle><circle r="5" cx="1252.88" cy="-42.1" fill="#d4d4d4"></circle><circle r="5" cx="1240.81" cy="65.85" fill="#d4d4d4"></circle><circle r="5" cx="1288.82" cy="257.44" fill="#d4d4d4"></circle><circle r="5" cx="1294" cy="381.14" fill="#d4d4d4"></circle><circle r="5" cx="1261.12" cy="511.32" fill="#d4d4d4"></circle><circle r="5" cx="1309.99" cy="644.68" fill="#d4d4d4"></circle><circle r="5" cx="1441.72" cy="103.58" fill="#d4d4d4"></circle><circle r="5" cx="1396.15" cy="374.06" fill="#d4d4d4"></circle><circle r="5" cx="1462.48" cy="498.89" fill="#d4d4d4"></circle><circle r="5" cx="1575.67" cy="-93.11" fill="#d4d4d4"></circle><circle r="5" cx="1580.91" cy="190.95" fill="#d4d4d4"></circle><circle r="5" cx="1595.98" cy="360.88" fill="#d4d4d4"></circle><circle r="5" cx="1582.76" cy="526.46" fill="#d4d4d4"></circle></g><defs><mask id="SvgjsMask1006"><rect width="1440" height="560" fill="#ffffff"></rect></mask><radialGradient id="SvgjsRadialGradient1007"><stop stop-color="#ffffff" offset="0.1"></stop><stop stop-color="rgba(169, 169, 169, 1)" offset="0.2"></stop><stop stop-color="rgba(169, 169, 169, 0)" offset="1"></stop></radialGradient></defs></svg>