<svg xmlns="http://www.w3.org/2000/svg" version="1.1" xmlns:xlink="http://www.w3.org/1999/xlink" xmlns:svgjs="http://svgjs.dev/svgjs" width="1440" height="560" preserveAspectRatio="none" viewBox="0 0 1440 560"><g mask="url(&quot;#SvgjsMask1010&quot;)" fill="none"><circle r="6.76" cx="505.57" cy="462.40999999999997" filter="url(#SvgjsFilter1011)" fill="rgba(169, 169, 169, 1)"></circle><circle r="6.945" cx="1114.655" cy="160.825" filter="url(#SvgjsFilter1011)" fill="rgba(169, 169, 169, 1)"></circle><circle r="9.005" cx="154.635" cy="241.065" filter="url(#SvgjsFilter1011)" fill="rgba(169, 169, 169, 1)"></circle><circle r="7.805" cx="827.3649999999999" cy="232.60500000000002" filter="url(#SvgjsFilter1011)" fill="rgba(169, 169, 169, 1)"></circle><circle r="5.7" cx="1386.51" cy="303.38" filter="url(#SvgjsFilter1011)" fill="rgba(169, 169, 169, 1)"></circle><circle r="8.545" cx="535.805" cy="136.99499999999998" filter="url(#SvgjsFilter1011)" fill="rgba(169, 169, 169, 1)"></circle><circle r="5.675" cx="49.074999999999996" cy="150.66500000000002" filter="url(#SvgjsFilter1011)" fill="rgba(169, 169, 169, 1)"></circle><circle r="4.83" cx="525.89" cy="236.28" filter="url(#SvgjsFilter1011)" fill="rgba(169, 169, 169, 1)"></circle><circle r="7.57" cx="453.27" cy="191.63" filter="url(#SvgjsFilter1011)" fill="rgba(169, 169, 169, 1)"></circle><circle r="6.525" cx="608.135" cy="62.434999999999995" filter="url(#SvgjsFilter1011)" fill="rgba(169, 169, 169, 1)"></circle><circle r="8.22" cx="1432.72" cy="347.76000000000005" filter="url(#SvgjsFilter1011)" fill="rgba(169, 169, 169, 1)"></circle><circle r="6.12" cx="1371.2399999999998" cy="12.09" filter="url(#SvgjsFilter1011)" fill="rgba(169, 169, 169, 1)"></circle><circle r="5.615" cx="1190.655" cy="53.925000000000004" filter="url(#SvgjsFilter1011)" fill="rgba(169, 169, 169, 1)"></circle><circle r="6.145" cx="798.025" cy="37.735" filter="url(#SvgjsFilter1011)" fill="rgba(169, 169, 169, 1)"></circle><circle r="8.55" cx="1338.98" cy="58.91" filter="url(#SvgjsFilter1011)" fill="rgba(169, 169, 169, 1)"></circle><circle r="6.845" cx="1394.805" cy="423.535" filter="url(#SvgjsFilter1011)" fill="rgba(169, 169, 169, 1)"></circle><circle r="8.81" cx="1185.23" cy="568" filter="url(#SvgjsFilter1011)" fill="rgba(169, 169, 169, 1)"></circle><circle r="7.13" cx="703.33" cy="528.12" filter="url(#SvgjsFilter1011)" fill="rgba(169, 169, 169, 1)"></circle><circle r="4.805" cx="183.035" cy="472.355" filter="url(#SvgjsFilter1011)" fill="rgba(169, 169, 169, 1)"></circle><circle r="5.445" cx="891.1850000000001" cy="109.38499999999999" filter="url(#SvgjsFilter1011)" fill="rgba(169, 169, 169, 1)"></circle><path d="M849 468.3L835.6 478.5 833.9 468.5C833.9 467.4 832.7 466.5 831.2 466.4 829.9 466.9 829 468.1 829.5 469.3L831.2 481.9 821.1 490.3 817.6 464.1C817.1 462.8 815.9 461.8 814.9 461.9 813.2 462.3 812.2 463.4 812.7 464.7L816.7 493.7 800.9 506 800.3 483 784 499.2 781 479.4 803.8 461.1C804.3 461.3 804.4 460.9 804.6 460.4 805 459.5 804.9 458.5 804.2 457.7 803.4 456.9 801.9 456.8 800.7 457.3L780.1 473.9 778.6 460.9 788.5 453C789.1 452.7 789.3 452.2 789.4 451.8 789.6 451.4 789.5 450.3 788.8 449.5 788.1 448.7 786.6 448.6 785.8 449.3L777.7 455.4 775 438.8C775.1 437.3 773.7 436.8 772.2 436.7 771.2 436.8 770.2 437.9 770.5 439.6L772.8 456 763.4 452.3C762.1 451.7 760.7 452.7 760.3 453.6 759.8 455 760.3 456.2 761.6 456.7L773.7 461.5 775.2 474.5 751.1 465C749.8 464.4 748.5 465 748 466.3 747.7 467.2 748 468.9 749.4 469.4L776.1 480.1 779.1 499.9 759 489.3 764.7 511.2 746 503.7 741.9 475.2C741.5 473.5 740.2 473 739.1 473.1 738 473.2 737.1 474.3 737 475.8L741.1 501.8 729.1 497 726.9 484.2C727 482.7 725.8 481.7 724.1 482.1 723.1 482.2 722.1 483.3 722.5 485L723.7 494.8 708.1 488.6C706.8 488.1 705.5 488.6 705 490S705 492.6 706.3 493.1L721.9 499.3 714.3 505.6C712.9 506.5 712.8 508.1 713.5 508.9 714.5 510.3 716 510.4 717 509.2L727.3 501.4 739.3 506.2 718.5 522.2C717.5 523.4 717.4 524.9 718.1 525.7 719.1 527.1 720.6 527.2 721.6 526L744.2 508.2 763 515.7 743.7 527.6 765.6 533.7 749.8 546.1 723.1 535.4C721.7 534.9 720.3 535.9 719.9 536.7 719.4 538.1 719.9 539.3 721.3 539.9L745.8 549.6 735.3 557.8 723.3 553.1C721.9 552.5 720.7 553.1 720.1 554.4 719.8 555.3 720.1 557 721.5 557.5L730.8 561.2 717.9 571.6C716.5 572.6 716.4 574.1 717.6 575.1 718.3 575.9 719.6 576.4 720.6 575.2L734 565.1 735.7 575.1C735.8 576.1 736.9 577.1 738 577 739.1 576.9 739.9 576.2 740 575.8 740.2 575.3 740.4 574.9 740.1 574.2L738.4 561.7 748.5 553.3 752 579.5C752.5 580.7 753.7 581.7 754.8 581.6 755.8 581.5 756.6 580.8 757 579.9 757.2 579.5 757.2 579.5 756.9 578.9L752.9 549.9 768.7 537.6 769.3 560.6 785.6 544.3 788.6 564.1 765.8 582.4C765 583.1 764.5 584.5 765.5 585.9 766.2 586.7 767.7 586.8 768.9 586.2L789.5 569.6 791 582.6 781.1 590.6C779.9 591.1 779.8 592.6 780.8 594.1 781.5 594.9 783 595 784.3 594.4L791.9 588.2 794.6 604.7C794.5 606.3 795.9 606.8 797.4 606.9 798 606.6 798.8 605.9 799 605.5 799.2 605 799.4 604.6 799.1 603.9L796.8 587.5 806.2 591.3C807.5 591.8 809 590.8 809.3 589.9L809.3 589.9C809.8 588.6 809.3 587.3 808 586.8L795.9 582 794.4 569 818.5 578.6C819.8 579.1 821.1 578.6 821.6 577.3S821.6 574.7 820.3 574.1L793.5 563.5 790.5 543.7 810.6 554.3 804.9 532.4 823.6 539.8 827.7 568.3C828.1 570 829.4 570.6 830.5 570.5 831.6 570.4 832.6 569.2 832.6 567.7L829 542 840.5 546.6 842.7 559.3C842.6 560.8 843.8 561.8 845.5 561.5 846.5 561.4 847.5 560.2 847.6 558.7L845.9 548.7 861.5 554.9C862.8 555.5 864.1 554.9 864.6 553.6S864.6 551 863.3 550.5L847.7 544.2 855.3 538C856 537.7 856.1 537.3 856.3 536.8 856.7 535.9 856.4 535.3 856.1 534.7 855.1 533.3 853.6 533.2 852.7 534.3L842.3 542.1 830.3 537.3 851.1 521.3C851.3 520.9 851.5 520.4 851.7 520 852 519.1 851.7 518.5 851.5 517.9 850.5 516.4 849 516.3 848 517.5L825.4 535.4 806.7 527.9 825.9 515.9 804 509.8 819.8 497.5 846.6 508.2C847.9 508.7 849.3 507.7 849.7 506.8 850.2 505.5 849.7 504.2 848.3 503.7L824.3 494.1 834.3 485.7 846.4 490.5C847.7 491 848.9 490.5 849.5 489.2S849.5 486.6 848.1 486L838.8 482.3 851.7 472C852.3 471.7 852.5 471.2 852.7 470.8 852.8 470.4 852.8 469.3 852 468.5 851.3 467.7 850 467.1 849 468.3ZM814.4 517.6L798.6 527.3 803.4 545.2 786.7 536.5 773.8 549.4 772.9 531 755.2 526 771 516.3 766.2 498.4 782.5 506.9 795.8 494.1 796.3 512.4 814.4 517.6Z" fill="rgba(169, 169, 169, 1)"></path><path d="M633.7 292.4L624.3 342.6 608.7 352.8 611.9 335.9C612.8 334.2 611.3 332.8 609.6 331.9 608.2 331.9 606.2 333.1 606.2 334.5L601.3 357.8 586.3 368.3 585.2 350 601 332C601 332 601.3 331.5 601.3 331.5 601.8 330.3 601.2 328.6 600.4 327.5 598.6 326.6 597.2 326.7 595.8 328.1L584.5 341.1 583.4 322.8 616.4 284C616.4 284 617.3 283.7 617.3 283.7 617.8 282.6 617.2 280.9 616.3 279.7 614.9 278.3 612.6 278.6 611.8 280.4L582.7 314 580.7 291.7 593.7 276.6C593.7 276.6 593.7 276.6 594 276 594.5 274.9 594.5 273.4 593.6 272.3 591.9 271.5 589.9 271.2 588.5 272.7L580 282.8 578.7 266.5C578.9 264.5 577.2 263.7 575.8 263.7 573.8 263.4 572.4 264.9 572.7 267.1L573.5 283.2 564.2 274.4C562.5 273.6 560.4 273.3 559.6 275 558.2 276.5 558.2 277.9 559.7 279.3L574.7 292.3 576.2 314.3 542 285C541.1 283.9 538.8 284.2 537.4 285.6 536.9 286.8 536.6 288.8 538.1 290.2L576.8 323.2 577.9 341.5 564.9 330.2C563.5 328.8 561.8 329.4 560.3 330.9 559.2 331.7 559.5 334 560.4 335.2L578.6 350.4 580.3 369 563.6 360.9 555.9 338.6C555.3 336.9 553.5 336.1 551.8 336.7 550.4 336.7 549.3 339 549.9 340.7L555.5 357 538.8 348.9 522.4 300.4C521.8 298.7 520.1 297.9 518.4 298.5 516.7 299.1 515.9 300.8 516.5 302.5L530.8 345 511.2 335.5 504.6 316.7C504 315 502.3 314.2 500.6 314.8 498.9 315.4 498 317.1 498.6 318.8L502.5 331.3 488.1 324.4C486.4 323.5 484.7 324.1 483.9 325.9 483 327.6 483.6 329.3 485.3 330.1L499.7 337.1 487.8 341.3C486.1 341.9 485.2 343.6 485.8 345.3S488.1 347.8 489.9 347.2L507.8 341 528 350.7 486.1 365.3C484.4 365.9 483.5 367.6 484.1 369.4 484.7 371.1 486.5 371.9 488.2 371.3L536 354.6 552.7 362.7 536.5 368.4C534.8 369 534 370.7 534.6 372.4 535.2 374.1 536.9 375 538.6 374.4L560.8 366.6 576.9 374.4 562.2 384.4 538.7 380.1C537.2 380.1 535.2 381.3 535.3 382.7 535 384.7 535.9 385.9 537.6 386.7L554.5 389.9 539.8 399.8 489.6 390.5C487.6 390.2 486.4 391.1 485.6 392.8 485.3 394.8 486.8 396.2 487.9 396.8L532.1 405.4 513.4 417.6 494.5 414.2C492.7 413.3 491.3 414.8 490.5 416.5 490.5 417.9 491.7 419.9 493.7 420.2L506 422.6 493 431.9C491.3 432.5 491 434.5 492.2 436.5 493.1 437.7 495.1 437.9 496.2 437L509.8 428 507.1 440.9C506.9 442.9 508.3 444.3 509.7 444.3 511.5 445.1 512.6 444.3 513.2 443.1 513.4 442.5 513.4 442.5 513.7 442L517.2 423 535.9 410.8 527.6 454.4C526.8 456.1 528.2 457.5 530 458.3 531.4 458.3 532.5 457.5 533.1 456.3 533.4 455.7 533.4 455.7 533.4 455.7L543.6 405.2 558.3 395.3 555.1 412.2C554.9 414.2 555.7 415.4 557.5 416.2 558.9 416.2 560.6 415.6 561.2 414.4 561.4 413.9 561.4 413.9 561.7 413.3L566 389.7 580.7 379.8 582.1 397.6 566.9 415.8C565.5 417.2 565.8 419.5 566.7 420.7 568.4 421.5 570.4 421.7 571.2 420L582.5 407 584.5 425 550.6 464.1C549.5 465 549.8 467.2 550.7 468.4 552.4 469.2 554.4 469.5 555.9 468L584.9 434.4 586.3 456.5 573.6 470.9C572.2 472.4 572.5 474.7 574.3 475.5 575.1 476.6 577.2 476.9 578.6 475.5L587 465.3 588.4 481.6C588.4 483.1 589.8 484.5 591.9 484.7 592.7 484.4 593.8 483.6 594.4 482.4 594.4 482.4 594.7 481.8 595 481.3L593.6 465 603.7 473.4C604.6 474.5 606.9 474.2 608 473.3 608.3 472.8 608.3 472.8 608.3 472.8 609.1 471 608.5 469.3 607.4 468.8L592.9 456.1 590.9 433.8 625.1 463.1C626.8 463.9 628.2 463.9 629.6 462.5 629.6 462.5 629.9 461.9 629.9 461.9 630.5 460.7 630.4 459.3 629 457.9L590.5 424.3 589.1 406.6 602.1 417.9C603.9 418.7 605.9 419 606.7 417.3 607.3 417.5 607.6 417 607.6 417 608.1 415.8 607.5 414.1 606.7 413L588.4 397.8 587.3 379.4 603.4 387.3 611.2 409.5C611.8 411.2 614.1 412.3 615.8 411.7 616.9 410.8 617.8 409.1 617.7 407.7L611.5 391.2 628.2 399.2 644.9 447.1C645.5 448.8 647.2 449.6 648.9 449.1 650.6 448.5 651.5 446.7 650.9 445L636.3 403.1 656.5 412.9 662.7 430.8C663.3 432.5 665 433.4 666.7 432.8S669.3 430.5 668.7 428.8L664.5 416.8 678.9 423.8C680.7 424.6 682.4 424 683.2 422.3 684 420.5 683.4 418.8 681.7 418L667.3 411 679.6 406.3C680.4 406 681.3 405.7 681.5 405.1 681.8 404.5 681.8 403.1 681.5 402.3 680.9 400.5 679.2 399.7 677.5 400.3L659.2 407.1 639.1 397.4 681.2 382.2C682.1 381.9 683 381.6 683.2 381 683.5 380.5 683.5 379 683.2 378.2 682.6 376.5 680.9 375.6 679.2 376.2L631 393.5 614.3 385.4 631.1 380C632 379.7 632.5 378.6 632.8 378 633.1 377.4 633.4 376.8 633.1 376 632.5 374.3 630.2 373.2 629 374L606.2 381.5 590.1 373.7 605.1 363.2 628.4 368C629.8 368 631.5 367.4 632.1 366.3 632.4 365.7 632.4 365.7 631.8 365.4 632.6 363.7 631.5 361.7 629.4 361.4L612.5 358.2 627.5 347.7 678.1 357.9C679.5 357.9 680.6 357 681.2 355.9 681.5 355.3 681.5 355.3 681.5 355.3 681.7 353.3 681.1 351.6 679.1 351.3L634.9 342.8 653.7 330.5 672.6 334C674.6 334.2 675.7 333.3 676.3 332.2 676.3 332.2 676.6 331.6 676.6 331.6 676.8 329.6 675.4 328.2 674.2 327.6L661 325.5 674.6 316.5C674.9 315.9 675.2 315.3 675.5 314.7 675.8 314.2 675.7 312.7 675.4 311.9 674 310.5 672.3 309.6 670.9 311.1L657.2 320.1 659.9 307.2C660.2 305.2 658.7 303.8 657.6 303.2 655.6 303 654.2 304.4 653.3 306.2L649.9 325.1 631.7 337.6 640 294C640.3 292 639.1 290 637.7 290.1 635.7 289.8 633.9 290.4 633.7 292.4Z" fill="rgba(169, 169, 169, 1)"></path><path d="M1082.3 208.9L1092.7 228.7 1079.2 228.7C1077.8 228.6 1076.3 229.9 1075.8 231.9 1076.2 233.6 1077.5 235.2 1079.3 234.8L1096.2 235.3 1105 250.4 1069.8 249.2C1068 249.6 1066.5 250.9 1066.3 252.3 1066.4 254.6 1067.7 256.2 1069.5 255.8L1108.5 257 1121.1 280.5 1090.8 276.2 1108.5 301.3 1081.8 300.7 1062.8 266.7C1063.2 266.1 1062.6 265.8 1062.1 265.5 1061 264.8 1059.6 264.7 1058.3 265.5 1057.1 266.2 1056.7 268.2 1057.1 269.9L1074.3 300.7 1056.9 299.8 1048.7 285C1048.4 284.2 1047.9 283.8 1047.3 283.5 1046.8 283.2 1045.4 283 1044.2 283.8 1042.9 284.6 1042.5 286.5 1043.3 287.7L1049.4 299.7 1027 299.6C1025.1 299.1 1024.1 300.8 1023.6 302.7 1023.5 304.2 1024.8 305.7 1027.1 305.6L1049.2 306.3 1042.2 317.8C1041.2 319.4 1042.1 321.5 1043.2 322.2 1044.9 323.2 1046.6 322.8 1047.6 321.1L1056.6 306.4 1074.1 307.3 1056.1 336.8C1055.1 338.4 1055.5 340.2 1057.1 341.2 1058.2 341.9 1060.5 341.8 1061.5 340.1L1081.5 307.3 1108.2 307.8 1089.8 331.9 1119.9 329.2 1105.9 352.2 1067.5 351.2C1065.2 351.3 1064.2 353 1064.1 354.4 1064 355.8 1065.3 357.4 1067.2 357.8L1102.2 358.2 1093.3 372.9 1076 372.9C1074 372.5 1072.5 373.8 1072.6 376.1 1072.5 377.5 1073.8 379.1 1076.1 379L1089.3 379.5 1077.6 398.6C1076.6 400.3 1077 402 1078.7 403S1082.1 403.6 1083.1 402L1094.7 382.8 1101.2 394.3C1102.2 396.4 1104.2 396.8 1105.4 396.1 1107.5 395.1 1107.9 393.1 1106.6 391.6L1098.7 376.3 1107.7 361.5 1124.1 392.5C1125.4 394 1127.3 394.5 1128.6 393.7 1130.6 392.7 1131.1 390.8 1129.8 389.2L1111.4 355.5 1125.4 332.6 1136.8 360.5 1149.7 333.2 1162.4 356.6 1142.4 389.4C1141.4 391.1 1142.4 393.2 1143.5 393.8 1145.1 394.8 1146.9 394.4 1147.9 392.8L1166.2 362.7 1174.7 378.3 1165.7 393.1C1164.7 394.7 1165.1 396.5 1166.7 397.5 1167.8 398.2 1170.1 398.1 1171.1 396.4L1178.1 385 1188.9 404.2C1189.8 406.3 1191.8 406.8 1193.3 405.5 1194.6 404.7 1195.6 403.1 1194.2 401.5L1183.9 381.7 1197.4 381.7C1198.8 381.8 1200.3 380.5 1200.4 379.1 1200.6 377.7 1199.8 376.4 1199.3 376.1 1198.7 375.8 1198.2 375.4 1197.3 375.7L1180.4 375.1 1171.6 360 1206.8 361.2C1208.6 360.8 1210.1 359.5 1210.3 358.1 1210.4 356.6 1209.6 355.4 1208.5 354.8 1208 354.4 1208 354.4 1207.1 354.7L1168.1 353.4 1155.5 329.9 1185.8 334.2 1168.1 309.2 1194.8 309.7 1213.8 343.7C1214.5 344.9 1216.2 345.9 1218.2 345 1219.5 344.2 1219.9 342.2 1219.5 340.5L1202.3 309.7 1219.7 310.6 1227.9 325.4C1228.4 327.1 1230.3 327.6 1232.4 326.6 1233.6 325.9 1234.1 323.9 1233.7 322.1L1227.2 310.7 1249.6 310.8C1251.5 311.3 1252.5 309.6 1253 307.7 1252.8 306.8 1252 305.6 1251.5 305.2 1250.9 304.9 1250.4 304.6 1249.5 304.8L1227.4 304.1 1234.4 292.6C1235.4 291 1234.5 288.9 1233.4 288.2L1233.4 288.2C1231.7 287.2 1230 287.6 1229 289.3L1220 304 1202.5 303.1 1220.5 273.6C1221.5 272 1221.1 270.2 1219.4 269.2S1216 268.7 1215 270.3L1195.1 303.1 1168.4 302.6 1186.8 278.6 1156.7 281.2 1170.7 258.2 1209.1 259.2C1211.4 259.1 1212.4 257.4 1212.5 256 1212.6 254.6 1211.3 253 1209.4 252.6L1174.7 251.7 1183.3 237.5 1200.6 237.5C1202.5 237.9 1204.1 236.6 1204 234.3 1204.1 232.9 1202.8 231.4 1200.8 230.9L1187.3 230.9 1199 211.8C1200 210.2 1199.6 208.4 1197.9 207.4S1194.5 206.8 1193.5 208.5L1181.9 227.6 1175.4 216.1C1175.2 215.2 1174.6 214.9 1174.1 214.6 1173 213.9 1172.1 214.1 1171.2 214.3 1169.1 215.3 1168.7 217.3 1170 218.8L1177.9 234.1 1168.9 248.9 1152.5 217.9C1152 217.6 1151.4 217.3 1150.9 216.9 1149.8 216.3 1148.9 216.5 1148 216.7 1145.9 217.7 1145.5 219.6 1146.8 221.2L1165.2 254.9 1151.2 277.9 1139.8 249.9 1126.9 277.2 1114.2 253.8 1134.2 221C1135.2 219.4 1134.2 217.3 1133.1 216.6 1131.5 215.6 1129.7 216 1128.7 217.7L1110.7 247.2 1101.9 232.1 1110.9 217.3C1111.9 215.7 1111.5 213.9 1109.9 212.9S1106.5 212.3 1105.5 214L1098.5 225.5 1087.7 206.2C1087.5 205.3 1087 205 1086.4 204.6 1085.9 204.3 1084.5 204.2 1083.2 204.9 1082 205.7 1081 207.3 1082.3 208.9ZM1139.3 265.4L1148.6 288.3 1173.2 286 1158 306 1172.2 325.9 1147.7 322.9 1137.2 345 1128 322.1 1103.4 324.4 1118.2 305 1104.4 284.6 1128.5 288 1139.3 265.4Z" fill="rgba(169, 169, 169, 1)"></path><path d="M73.7 478L93.3 478 87.8 488.5C87.1 489.5 87.5 491.3 88.8 492.4 90.3 492.8 92.1 492.5 92.5 490.9L99.8 478.1 115.1 477.5 99.7 504.2C99.3 505.7 99.7 507.5 100.7 508.1 102.6 509 104.3 508.6 104.7 507.1L121.6 477.5 145 477.3 129.2 499.1 155.8 495.6 144.5 516 110.4 516.7C110.1 516.3 109.6 516.5 109.1 516.8 108.2 517.4 107.5 518.5 107.6 519.7 107.7 521 109 522.1 110.6 522.5L141.4 521.8 133.6 534.9 118.8 535.2C118 535 117.5 535.3 117 535.6 116.5 535.9 115.9 536.9 116 538.2 116.1 539.4 117.4 540.6 118.6 540.5L130.5 540.6 121.2 557.9C120 559.2 120.9 560.7 122.2 561.8 123.2 562.5 125 562.1 125.8 560.3L135.4 543.6 141.4 553.7C142.3 555.1 144.3 555.2 145.3 554.6 146.7 553.8 147.1 552.2 146.3 550.8L138.5 537.8 146.4 524.7 161.8 550.7C162.7 552.1 164.2 552.5 165.6 551.7 166.6 551.1 167.5 549.3 166.6 547.8L149.5 518.9 160.8 498.5 171.8 522.6 182.1 498.2 194.1 518.5 177.7 547.8C176.8 549.6 177.7 551 178.7 551.7 179.8 552.4 181.5 552 182.7 550.7L197.3 523.8 205 536.8 197.9 550.1C196.8 551.4 197.1 553.2 199 554 200 554.7 201.7 554.3 202.6 552.5L208.4 542.5 218.4 559.4C219.3 560.8 220.8 561.2 222.3 560.4S224.1 558 223.2 556.5L213.2 539.7 224.8 539.4C226.8 539.5 227.9 538.1 227.9 536.9 228 534.9 226.6 533.7 224.9 534.1L209.8 533.9 202.1 520.9 232.7 520.9C234.5 520.6 235.6 519.2 235.5 518 235.6 516 234.3 514.8 232.6 515.2L198.9 515.6 186.9 495.4 213.2 498 197.4 476.8 220.7 476.6 237.9 505.5C238.7 507 240.8 507.1 241.7 506.5 243.2 505.6 243.6 504.1 242.7 502.7L227 476.2 242.5 476 250.3 489C251.1 490.5 252.7 490.9 254.1 490 255.1 489.5 255.9 487.6 255.1 486.2L249.1 476.1 268.4 475.7C270.4 475.8 271.6 474.5 271.2 472.7 271.1 471.5 270.2 470 268.5 470.4L248.9 470.3 254.4 459.9C255.1 458.8 254.7 457.1 253.7 456.4 252.6 455.7 251.4 455.8 250.9 456.1 250.4 456.4 249.9 456.7 249.7 457.4L242.4 470.3 227.1 470.9 242.5 444.2C242.9 442.6 242.5 440.9 241.5 440.2 240.4 439.5 239.2 439.6 238.2 440.2 237.7 440.5 237.7 440.5 237.5 441.3L220.6 470.9 197.2 471 213 449.3 186.4 452.7 197.7 432.3 231.8 431.6C233 431.5 234.5 430.7 234.6 428.7 234.5 427.4 233.2 426.3 231.6 425.9L200.8 426.6 208.6 413.5 223.4 413.1C225 413.5 226.1 412.2 226.2 410.2 226.1 408.9 224.8 407.8 223.3 407.4L211.7 407.7 221 390.5C222.2 389.1 221.3 387.7 220 386.5 219.2 386.3 218 386.4 217.5 386.7 217 387 216.5 387.3 216.3 388.1L206.8 404.8 200.8 394.7C199.9 393.3 197.9 393.2 196.9 393.7L196.9 393.7C195.5 394.6 195.1 396.1 195.9 397.6L203.7 410.6 195.8 423.7 180.4 397.7C179.5 396.2 178 395.8 176.5 396.7S174.7 399.1 175.6 400.5L192.7 429.4 181.4 449.8 170.4 425.8 160.1 450.1 148.1 429.9 164.5 400.6C165.4 398.8 164.5 397.3 163.5 396.6 162.4 396 160.7 396.3 159.5 397.7L144.6 424.1 137.2 411.6 144.3 398.3C145.4 396.9 145 395.2 143.2 394.3 142.2 393.7 140.4 394 139.3 395.4L133.8 405.8 123.8 389C122.9 387.5 121.4 387.1 119.9 388S118.1 390.4 118.9 391.8L128.9 408.7 117.4 409C116.7 408.8 116.2 409.1 115.7 409.4 114.7 410 114.5 410.7 114.3 411.5 114.2 413.5 115.6 414.7 117.3 414.3L132.4 414.5 140.1 427.5 109.5 427.4C109 427.7 108.5 428 108 428.3 107.1 428.8 106.9 429.6 106.7 430.4 106.6 432.4 107.9 433.6 109.6 433.2L143.2 432.8 155.2 453 128.9 450.4 144.8 471.6 121.5 471.7 104.3 442.9C103.4 441.4 101.4 441.3 100.5 441.9 99 442.7 98.6 444.3 99.5 445.7L114.9 471.7 99.6 472.3 91.9 459.3C91.1 457.9 89.5 457.5 88.1 458.3S86.3 460.7 87.1 462.2L93.1 472.3 73.8 472.7C73 472.5 72.6 472.8 72.1 473.1 71.6 473.3 70.9 474.4 71 475.6 71.1 476.9 72 478.3 73.7 478ZM140.7 457L162.2 459.3 170.6 439.3 179.8 459.2 200.9 456.5 188.7 474.2 201.5 491.3 180 489.1 171.6 509 162.7 489.6 141.2 491.9 153.8 474.7 140.7 457Z" fill="rgba(169, 169, 169, 1)"></path><path d="M319.4 114L319.3 124 313.4 120.8C312.8 120.4 311.8 120.6 311.1 121.4 310.9 122.3 311.1 123.3 311.7 123.7L319.4 128 319.4 137.3 303.7 128.4C302.6 127.9 301.7 128.1 301.4 128.9 300.8 129.7 301 130.7 302 131.2L319.3 141.1 319.5 149.5 302.6 159.4 296.1 155.8 296.2 134.6C296.1 134.3 295.9 134 295.7 133.8 295.6 133.5 295 133.1 294.5 133 293.4 132.9 292.7 133.7 292.9 134.7L292.8 154.1 284.9 149.4 284.6 139.5C284.9 139.4 284.8 139.1 284.6 138.8 284.3 138.3 283.7 137.9 283 137.9 282.2 138 281.6 138.7 281.4 139.6L281.6 147.6 271.6 142C271 141.6 270 141.8 269.4 142.6 269.1 143.5 269.3 144.4 269.9 144.8L279.3 150.1 273.5 153.5C272.7 154 272.6 155.1 273 155.7 273.5 156.5 274.5 157 275.3 156.5L282.8 152.1 290.7 156.8 275.2 165.9C274.4 166.3 274.2 167.2 274.7 168 275.2 168.9 276 169.1 276.9 168.6L294 158.6 301 162.3 301 181.9 294.6 185.6 276.9 175.6C276.1 175 274.9 175.3 274.6 176.2 274 177 274.5 177.8 275.2 178.5L291.3 187.6 283.3 192.3 275.4 187.6C274.8 187.3 273.6 187.6 273.2 188.2S273.1 190.1 273.9 190.8L280 194.2 270.4 199.9C269.5 200.4 269.5 201.5 270 202.4 270.3 202.9 271.3 203.4 272.1 202.9L281.8 197.3 282 204.6C282.1 205.3 282.5 206.1 283.7 206.2 284.4 206.1 285.4 205.2 285.3 204.5L285.1 195.3 293.1 190.6 293.2 209.1C293.4 210.1 293.9 210.9 295.1 211 295.8 210.9 296.7 210 296.7 209.3L296.4 188.7 302.8 184.9 319.9 194.5 319.7 202.4 302.6 212.5C301.8 213 301.6 213.8 302.1 214.7 302.5 215.5 303.6 216 304.4 215.5L319.9 206.4 320.1 215.6 312.6 220C311.8 220.5 311.5 221.3 312 222.2 312.5 223 313.4 223.2 314.2 222.7L320 219.3 320 230.1C320.1 230.8 321 231.8 321.7 231.7 322.7 231.5 323.5 231 323.3 230L323.4 218.8 330.1 222.7C331 222.9 332 222.7 332.4 222.1 332.8 221.5 332.7 220.8 332.4 220.2 332.4 220.2 332.3 219.9 331.8 219.8L323.3 214.8 323.1 205.6 340.1 215C340.9 215.6 341.8 215.4 342.3 214.4 342.5 214 342.6 213.5 342.3 213 342.1 212.7 341.9 212.4 341.8 212.1L323.1 201.9 323.2 194.5 340 184.6 347.4 188.8 347.6 208.7C347.5 209.9 348.3 210.5 349.2 210.3 350.1 210.6 350.8 209.8 350.9 208.7L350.6 190.6 358.8 195.1 358.9 204C358.9 204.7 359.7 205.3 360.5 205.6 361.5 205.3 362.4 204.9 362.1 203.9L362.3 197.1 371.1 202C371.8 202.6 372.6 202.2 373.3 201.4 373.4 201 373.4 200.2 373.1 199.7 373.1 199.7 372.9 199.4 372.7 199.1L363.3 193.9 370.2 189.8C370.8 189.5 371.3 188.5 370.8 187.7 370.3 186.8 369.2 186.8 368.6 187.1L360.1 192.1 351.9 187.6 368.7 177.8C369.5 177.3 369.6 176.1 369.1 175.3S367.7 174.2 366.9 174.7L348.4 185.6 341.7 181.7 341.7 162.1 348.9 157.9 366.8 168.1C367.6 168.4 368.6 168.1 369.3 167.4 369.4 166.9 369.4 166.2 369 165.7 368.9 165.4 368.7 165.1 368.3 165L352.2 155.9 360.2 151.2 368.4 155.7C369 156.1 369.9 155.9 370.6 155.1 370.8 154.2 370.6 153.2 370 152.9L363.5 149.3 372.3 144.1C372.9 143.8 373.2 142.5 372.9 141.9 372.4 141.1 371.1 140.7 370.5 141.1L361.7 146.2 361.9 139.1C361.8 138.8 361.6 138.5 361.4 138.2 361.1 137.7 360.5 137.3 360.1 137.2 359.1 137.4 358.4 138.1 358.2 139L358.4 148.2 350.4 152.9 350.3 134.4C350.3 133.2 349.6 132.6 348.9 132.6 347.7 132.6 347.1 133.3 346.8 134.2L347.1 154.8 339.9 159 322.8 149.4 322.7 141.7 341.1 130.8C342 130.4 342.2 129.5 341.7 128.7 341.2 127.8 340.4 127.6 339.5 128.1L322.7 138 322.8 128.6 331.3 123.6C331.9 123.3 332.2 122 331.7 121.2 331.3 120.3 330.1 120.3 329.6 120.6L322.7 124.6 322.6 113.9C322.5 113.6 322.5 113.6 322.3 113.3 322 112.8 321.4 112.4 321 112.3 320 112.5 319.3 113.2 319.4 114ZM336.6 161L338.4 162.2 338.4 164 338.4 179.9 338.4 181.8 336.8 182.8 323.2 190.7 321.6 191.7 320 190.8 306.1 183 304.4 182.1 304.3 180 304.4 164.3 304.3 162.2 305.9 161.2 319.4 153.3 321.1 152.3 322.9 153.5 336.6 161Z" fill="rgba(169, 169, 169, 1)"></path><path d="M1395 223.1L1388.7 254.3 1378.8 260.6 1381 250C1381.5 249 1380.7 248.1 1379.6 247.5 1378.7 247.5 1377.4 248.2 1377.4 249.1L1374.2 263.6 1364.7 270 1364.2 258.6 1374.2 247.5C1374.2 247.5 1374.4 247.1 1374.4 247.1 1374.8 246.4 1374.4 245.4 1373.9 244.6 1372.8 244.1 1371.9 244.1 1371 245L1363.8 253 1363.3 241.6 1384.3 217.7C1384.3 217.7 1384.9 217.5 1384.9 217.5 1385.2 216.8 1384.9 215.7 1384.3 215 1383.5 214.1 1382 214.3 1381.5 215.3L1363 236 1362 222.1 1370.2 212.8C1370.2 212.8 1370.2 212.8 1370.4 212.4 1370.8 211.7 1370.8 210.8 1370.2 210.1 1369.2 209.6 1367.9 209.4 1367 210.3L1361.6 216.5 1360.9 206.3C1361.1 205.1 1360.1 204.5 1359.2 204.5 1357.9 204.3 1357 205.2 1357.2 206.7L1357.5 216.7 1351.8 211.1C1350.7 210.6 1349.5 210.4 1348.9 211.5 1348 212.3 1348 213.2 1348.9 214.1L1358.2 222.4 1358.9 236.2 1337.8 217.5C1337.3 216.8 1335.9 217 1335 217.8 1334.6 218.6 1334.4 219.8 1335.3 220.7L1359.2 241.7 1359.7 253.2 1351.7 246C1350.8 245.1 1349.7 245.4 1348.8 246.3 1348.1 246.9 1348.3 248.3 1348.8 249L1360 258.7 1360.9 270.4 1350.5 265.1 1345.9 251.2C1345.6 250.1 1344.5 249.5 1343.4 249.9 1342.5 249.9 1341.8 251.3 1342.2 252.4L1345.5 262.6 1335.2 257.4 1325.4 226.9C1325.1 225.9 1324 225.3 1322.9 225.7 1321.9 226 1321.3 227.1 1321.7 228.2L1330.2 254.9 1318 248.7 1314.1 236.9C1313.8 235.8 1312.7 235.3 1311.6 235.7 1310.6 236 1310 237.1 1310.4 238.2L1312.7 246 1303.8 241.5C1302.7 241 1301.6 241.3 1301.1 242.4 1300.5 243.5 1300.9 244.6 1302 245.1L1310.9 249.6 1303.4 252.1C1302.3 252.4 1301.7 253.5 1302.1 254.6S1303.5 256.2 1304.6 255.8L1315.9 252.1 1328.4 258.4 1302.1 267.1C1301 267.5 1300.4 268.5 1300.8 269.6 1301.2 270.7 1302.2 271.2 1303.3 270.9L1333.4 261 1343.7 266.2 1333.5 269.5C1332.5 269.9 1331.9 271 1332.3 272 1332.6 273.1 1333.7 273.7 1334.8 273.3L1348.7 268.7 1358.7 273.7 1349.4 279.8 1334.8 276.9C1333.9 276.9 1332.6 277.6 1332.6 278.5 1332.4 279.7 1333 280.5 1334 281L1344.6 283.2 1335.3 289.2 1304 282.9C1302.7 282.7 1302 283.2 1301.5 284.3 1301.3 285.5 1302.2 286.4 1302.9 286.8L1330.4 292.6 1318.6 300.1 1306.8 297.7C1305.7 297.2 1304.8 298.1 1304.3 299.1 1304.3 300 1305 301.3 1306.2 301.5L1313.9 303.1 1305.7 308.8C1304.6 309.2 1304.4 310.4 1305.1 311.7 1305.7 312.4 1306.9 312.6 1307.6 312L1316.2 306.5 1314.4 314.6C1314.2 315.8 1315.1 316.7 1316 316.7 1317.1 317.2 1317.8 316.7 1318.2 316 1318.4 315.6 1318.4 315.6 1318.5 315.3L1320.9 303.5 1332.7 296 1327.1 323.2C1326.5 324.3 1327.4 325.2 1328.5 325.7 1329.4 325.7 1330.1 325.2 1330.5 324.4 1330.7 324.1 1330.7 324.1 1330.7 324.1L1337.6 292.6 1346.9 286.6 1344.7 297.1C1344.5 298.4 1345.1 299.1 1346.1 299.6 1347 299.6 1348.1 299.3 1348.5 298.6 1348.6 298.2 1348.6 298.2 1348.8 297.9L1351.7 283.2 1361.1 277.1 1361.7 288.2 1352 299.5C1351.1 300.4 1351.3 301.8 1351.8 302.5 1352.9 303.1 1354.2 303.2 1354.7 302.2L1361.9 294.1 1362.9 305.4 1341.4 329.5C1340.7 330 1340.8 331.5 1341.4 332.2 1342.4 332.7 1343.7 332.9 1344.6 332L1363.1 311.3 1363.8 325.1 1355.7 334C1354.8 334.9 1355 336.3 1356 336.9 1356.6 337.6 1357.8 337.8 1358.7 336.9L1364.1 330.6 1364.8 340.8C1364.8 341.7 1365.7 342.6 1366.9 342.8 1367.5 342.6 1368.2 342.1 1368.5 341.4 1368.5 341.4 1368.7 341 1368.9 340.7L1368.2 330.5 1374.5 335.9C1375 336.6 1376.4 336.4 1377.1 335.9 1377.3 335.5 1377.3 335.5 1377.3 335.5 1377.9 334.4 1377.5 333.4 1376.8 333L1367.9 324.9 1366.8 311 1387.9 329.7C1389 330.2 1389.9 330.2 1390.8 329.3 1390.8 329.3 1390.9 328.9 1390.9 328.9 1391.3 328.2 1391.3 327.3 1390.4 326.4L1366.7 305.1 1366 294 1374 301.2C1375.1 301.7 1376.4 301.9 1376.9 300.8 1377.3 301 1377.4 300.6 1377.4 300.6 1377.8 299.9 1377.4 298.8 1376.9 298.1L1365.7 288.4 1365.2 277 1375.2 282 1379.8 296C1380.1 297.1 1381.6 297.8 1382.6 297.4 1383.3 296.9 1383.9 295.8 1383.9 294.9L1380.2 284.5 1390.5 289.8 1400.4 319.9C1400.8 320.9 1401.9 321.5 1402.9 321.1 1404 320.8 1404.6 319.7 1404.2 318.6L1395.5 292.3 1408 298.6 1411.7 309.9C1412.1 311 1413.2 311.5 1414.2 311.1S1415.9 309.7 1415.5 308.6L1413 301.1 1422 305.6C1423 306.2 1424.1 305.8 1424.6 304.7 1425.2 303.7 1424.8 302.6 1423.8 302L1414.8 297.5 1422.5 294.7C1423.1 294.5 1423.6 294.4 1423.8 294 1424 293.6 1424 292.7 1423.8 292.2 1423.4 291.1 1422.4 290.6 1421.3 290.9L1409.8 295 1397.3 288.7 1423.8 279.7C1424.4 279.5 1424.9 279.3 1425.1 279 1425.3 278.6 1425.3 277.7 1425.1 277.2 1424.7 276.1 1423.7 275.6 1422.6 275.9L1392.3 286.2 1382 281 1392.5 277.8C1393.1 277.6 1393.4 276.9 1393.6 276.5 1393.8 276.2 1394 275.8 1393.8 275.3 1393.4 274.2 1392 273.5 1391.3 274L1377 278.5 1367 273.4 1376.5 267 1391 270.3C1391.8 270.3 1392.9 269.9 1393.3 269.2 1393.5 268.9 1393.5 268.9 1393.1 268.7 1393.6 267.6 1392.9 266.3 1391.7 266.2L1381.1 264 1390.6 257.6 1422.1 264.5C1423 264.5 1423.7 263.9 1424.1 263.2 1424.3 262.9 1424.3 262.9 1424.3 262.9 1424.4 261.6 1424.1 260.5 1422.8 260.4L1395.3 254.5 1407.1 247.1 1418.9 249.4C1420.2 249.6 1420.9 249.1 1421.3 248.4 1421.3 248.4 1421.4 248 1421.4 248 1421.6 246.8 1420.7 245.9 1420 245.5L1411.8 244 1420.4 238.5C1420.6 238.2 1420.8 237.8 1420.9 237.5 1421.1 237.1 1421.1 236.2 1420.9 235.7 1420.1 234.8 1419 234.2 1418.1 235.1L1409.5 240.6 1411.3 232.6C1411.5 231.3 1410.6 230.4 1409.9 230.1 1408.6 229.9 1407.7 230.8 1407.2 231.9L1404.8 243.7 1393.3 251.3 1399 224.1C1399.2 222.9 1398.5 221.6 1397.6 221.6 1396.3 221.5 1395.2 221.8 1395 223.1Z" fill="rgba(169, 169, 169, 1)"></path><path d="M1339.3 494.4L1314.7 484.7 1311.6 478.1 1321.2 464.9 1328.6 465.6 1345.1 486.4C1345.4 486.6 1345.4 486.6 1345.7 486.8 1346.2 487.1 1346.9 487.3 1347.7 486.7 1348.3 485.9 1348.4 485.2 1347.8 484.4L1333.3 466.3 1344.7 467.4 1351.2 475.4C1351.2 475.4 1351.5 475.6 1351.5 475.6 1352 475.9 1352.7 476 1353.5 475.5 1354.2 475.1 1354.2 474 1353.6 473.2L1349.6 467.8 1358 468.8C1358.7 468.9 1359.5 468.3 1359.8 467.4S1359.1 465.7 1358.1 465.4L1350 464.6 1355 460.3C1355.9 459.8 1355.9 458.6 1355.3 457.8 1354.8 457.4 1353.9 457.1 1353 457.7L1345.1 464.2 1333.4 462.8 1351.6 448.3C1352.4 447.7 1352.4 446.5 1352.1 445.9 1351.3 445.3 1350.4 445 1349.5 445.6L1329 462.3 1321.3 461.5 1314.9 446.9 1319.5 440.7 1345.6 436.4C1346.5 436.3 1347 435.5 1346.9 434.6S1346 433.1 1345.1 433.3L1322.1 437.1 1329.1 427.5 1338.9 426C1339.8 425.8 1340.4 425.1 1340.4 423.9S1339.5 422.5 1338.6 422.6L1331.7 423.9 1336.8 416.9C1337.4 416.1 1337 415.1 1336.2 414.5 1335.4 413.9 1334.5 414.1 1334 414.8L1328.9 421.8 1327.8 415.1C1327.9 414 1327.1 413.4 1326 413.8 1325.1 413.9 1324.6 414.7 1324.7 415.6L1326.2 425.4 1319.3 435 1315.9 411.9C1315.7 411.1 1314.7 410.3 1313.8 410.4S1312.4 411.4 1312.5 412.3L1316.6 438.6 1312.1 444.8 1296 443 1293.1 436.1 1302.8 411.5C1303.1 410.5 1302.5 409.7 1301.7 409.1 1300.7 408.8 1299.9 409.4 1299.3 410.2L1291.1 431.9 1286.4 421.4 1290.2 411.8C1290.5 410.9 1289.9 410 1289.2 409.5 1288.5 409.4 1287.4 409.8 1287.1 410.7L1284.6 416.8 1281.1 409.1C1280.8 408.5 1279.8 408.2 1278.9 408.3 1278.1 408.9 1277.8 409.9 1278.1 410.5L1281.6 418.2 1275 415.8C1274.3 415.7 1273.2 416.1 1273.1 416.8 1272.6 417.6 1272.9 418.2 1273.7 418.8 1273.7 418.8 1273.9 419 1273.9 419L1283.4 422.7 1288.1 433.2 1266.4 425C1265.4 424.6 1264.5 424.8 1264.2 425.7 1263.9 426.7 1264.2 427.3 1264.8 427.7 1265 427.9 1265 427.9 1265 427.9L1290.1 437.5 1293 444.4 1283.4 457.6 1276.1 456.6 1259.2 435.9C1258.8 435.3 1257.7 435.2 1257 435.6 1256.2 436.2 1256.2 437.3 1256.8 438.1L1271.3 456.2 1259.9 455.1 1253.4 447.1C1252.8 446.3 1251.8 446 1251.2 446.8 1250.4 447.4 1250.4 448.5 1250.7 449.2L1255.2 454.4 1246.8 453.4C1245.9 453.6 1245.1 454.2 1244.8 455.1 1244.8 455.6 1245.2 456.2 1245.7 456.6 1245.9 456.8 1245.9 456.8 1246.4 456.7L1254.8 457.7 1249.5 462.2C1248.7 462.8 1248.8 463.6 1249.2 464.3 1249.4 464.5 1249.4 464.5 1249.7 464.7 1250.2 465 1250.9 465.2 1251.5 464.8L1259.5 458.3 1270.9 459.5 1252.8 474C1252.2 474.8 1251.9 475.8 1252.7 476.3 1252.7 476.8 1252.7 476.8 1253 477 1253.5 477.3 1254.4 477.2 1255 476.9L1275.7 459.9 1283 460.8 1289.6 475.6 1285.3 481.5 1258.9 485.7C1258 485.8 1257.3 486.8 1257.4 487.7S1258.6 489.4 1259.5 489.2L1282.5 485.4 1275.7 494.7 1265.7 496.5C1264.8 496.7 1264.2 497.4 1264.3 498.3 1264.5 499.2 1265.3 499.8 1266.1 499.6L1272.9 498.6 1267.8 505.6C1267.4 506.1 1267.3 507.2 1268.1 507.8 1268.9 508.4 1270.2 508.2 1270.6 507.7L1275.7 500.7 1276.7 507.4C1276.8 507.8 1276.9 508.3 1277.1 508.5 1277.7 508.8 1278.1 508.8 1278.6 508.7 1279.4 508.6 1280 507.8 1279.9 506.9L1278.5 496.8 1285.3 487.5 1288.7 510.6C1288.8 511 1289 511.2 1289.5 511.6 1289.8 511.8 1290.1 511.9 1290.5 511.9 1291.4 511.7 1292.1 510.7 1292 509.8L1288.1 483.6 1292.5 477.7 1308.3 479.3 1311.7 486.1 1301.8 511C1301.7 511.7 1301.8 512.6 1302.4 513 1302.6 513.2 1302.6 513.2 1302.8 512.9 1303.6 513.5 1304.7 513.1 1305 512.1L1313.3 490.5 1318.1 501.1 1314.4 510.7C1314.2 511.4 1314.6 512 1315.1 512.4 1315.1 512.4 1315.3 512.6 1315.3 512.6 1316.1 513.1 1317.2 512.7 1317.5 511.8L1319.9 505.2 1323.4 512.9C1323.5 513.4 1323.7 513.6 1324 513.7 1324.5 514.1 1325.2 514.2 1325.4 514 1326.5 513.6 1326.8 512.6 1326.7 511.7L1323.2 504 1329.3 506.5C1330.2 506.8 1331.3 506.4 1331.6 505.4 1331.8 504.7 1331.4 503.7 1330.6 503.5L1321.1 499.8 1316.5 489.3 1338.2 497.6C1339.2 497.9 1340 497.3 1340.5 496.5 1340.7 495.8 1340.3 494.7 1339.3 494.4ZM1317.2 464.4L1309.9 474.5 1308.7 476 1306.9 475.9 1294.7 474.6 1292.6 474.2 1291.9 472.5 1287 461.4 1286.2 459.6 1287.4 458.1 1294.7 448 1295.9 446.5 1297.7 446.6 1309.8 447.9 1311.7 448.1 1312.7 450 1317.6 461.1 1318.3 462.9 1317.2 464.4Z" fill="rgba(169, 169, 169, 1)"></path><path d="M835.2 222.9L822.2 212.3 831.5 208.3C832.5 208 833.2 206.6 832.9 205.1 832.1 204 830.7 203.4 829.6 204.2L817.8 208.8 807.3 200.9 832 191.4C833.1 190.6 833.7 189.2 833.4 188.2 832.7 186.7 831.3 186 830.2 186.8L803 197.4 787.3 184.9 809.5 178.9 789.9 166.9 808.5 159.4 831.6 177.3C831.5 177.8 832 177.8 832.5 177.9 833.4 178 834.5 177.7 835.1 176.8 835.7 175.9 835.4 174.5 834.6 173.4L813.7 157.2 826 152.7 836 160.5C836.4 161 836.9 161.1 837.3 161.2 837.8 161.2 838.8 160.9 839.4 160 840.1 159.1 839.8 157.6 838.9 157L831.1 150.5 846.6 144.1C848.1 143.8 848.3 142.4 848 140.9 847.7 139.9 846.3 139.2 844.8 139.9L829.4 145.9 830.8 136C831 134.5 829.7 133.4 828.8 133.2 827.3 133 826.3 133.8 826.1 135.3L824.2 148.1 811.9 152.6 815.6 127C815.8 125.5 815 124.4 813.6 124.2 812.6 124.1 811.1 124.8 810.9 126.3L806.7 154.8 788.2 162.3 793.8 140.3 773.8 151 776.7 131 803.5 120.4C805 119.6 805.3 118.2 804.9 117.2 804.6 116.1 803.2 115.5 801.7 115.7L777.5 125.8 779.3 113 791.2 107.9C792.7 107.6 793.4 106.3 792.7 104.7 792.3 103.7 791 103 789.4 103.8L780.2 107.3 782.6 90.6C782.8 89.2 782 88.1 780.5 87.9S778 88.5 777.8 90L775.4 106.6 767.5 100.6C766.3 99.4 764.8 99.7 764.2 100.6 763 101.9 763.3 103.4 764.6 104L774.6 112.3 772.7 125.1 752.3 108.6C751 107.9 749.5 108.2 748.9 109 747.7 110.3 748 111.8 749.3 112.5L772 130.3 769.1 150.3 752.9 134.4 752.1 157 736.4 144.6 740.6 116.1C740.8 114.7 739.5 113.5 738.5 113.4 737.1 113.2 736 114 735.8 115.4L732 141.5 721.6 133.2 723.4 120.4C723.7 119 722.8 117.9 721.4 117.7 720.5 117.5 718.9 118.3 718.7 119.7L717.3 129.7 704.2 119.5C702.9 118.4 701.4 118.6 700.7 120 700.1 120.9 699.9 122.3 701.2 123L714.3 133.6 704.9 137.6C703.9 137.9 703.2 139.3 703.6 140.3 703.9 141.3 704.8 141.9 705.3 142 705.8 142.1 706.2 142.1 706.8 141.7L718.6 137.1 729.1 145 704.4 154.5C703.4 155.3 702.7 156.7 703 157.7 703.3 158.7 704.2 159.3 705.2 159.4 705.6 159.5 705.6 159.5 706.2 159.1L733.4 148.5 749.1 161 726.9 167 746.5 179 727.9 186.5 704.8 168.6C703.9 168 702.5 167.8 701.4 169.1 700.7 170 701 171.5 701.8 172.5L722.8 188.7 710.5 193.2 700.4 185.4C699.6 184.3 698.1 184.6 697 185.9 696.4 186.8 696.6 188.3 697.4 189.4L705.3 195.4 689.8 201.8C688.3 202.1 688.1 203.5 688.4 205 688.8 205.6 689.7 206.2 690.1 206.3 690.6 206.3 691.1 206.4 691.6 206L707.1 200 705.6 210C705.4 211.4 706.7 212.5 707.6 212.7L707.6 212.7C709.1 212.9 710.2 212.1 710.4 210.6L712.2 197.8 724.5 193.3 720.8 218.9C720.6 220.4 721.4 221.5 722.8 221.7S725.3 221.1 725.5 219.6L729.7 191.1 748.2 183.6 742.6 205.6 762.6 194.9 759.7 214.9 732.9 225.6C731.4 226.3 731.2 227.7 731.5 228.7 731.8 229.8 733.2 230.4 734.7 230.2L758.9 220.6 757.1 232.9 745.2 238C743.7 238.3 743 239.6 743.8 241.2 744.1 242.2 745.5 242.9 747 242.6L756.3 238.6 753.8 255.3C753.6 256.7 754.5 257.8 755.9 258S758.4 257.4 758.6 256L761 239.3 768.9 245.3C769.3 245.9 769.8 245.9 770.2 246 771.2 246.1 771.7 245.7 772.3 245.3 773.4 244 773.2 242.5 771.8 241.9L761.8 233.6 763.7 220.8 784.1 237.3C784.6 237.4 785 237.5 785.5 237.5 786.5 237.7 787 237.3 787.6 236.9 788.7 235.6 788.4 234.1 787.1 233.4L764.5 215.6 767.3 195.6 783.5 211.5 784.3 188.9 800 201.3 795.9 229.8C795.6 231.3 796.9 232.4 797.9 232.5 799.3 232.8 800.4 231.9 800.6 230.5L804.3 204.9 814.8 212.7 813 225.5C812.8 226.9 813.6 228 815 228.2S817.5 227.6 817.7 226.2L819.2 216.2 832.2 226.4C832.7 226.9 833.1 227 833.6 227.1 834.1 227.1 835.1 226.8 835.7 225.9 836.3 225 836.5 223.6 835.2 222.9ZM779.2 200.7L766.1 187.7 749.8 196.5 754.3 178.2 738.8 168.7 756.5 163.5 757.2 145.2 770.3 158.2 786.7 149.4 782.1 167.2 797.7 177.2 780 181.9 779.2 200.7Z" fill="rgba(169, 169, 169, 1)"></path><path d="M313 534.2L321.7 529 322 535.8C322 536.5 322.6 537.2 323.6 537.4 324.5 537.2 325.2 536.5 325.3 535.8L325 526.9 333.1 522.2 333.4 540.2C333.5 541.4 334.2 542.1 335.1 541.9 336.1 542 336.8 541.3 336.7 540.2L336.3 520.3 343.5 515.8 360.6 525.2 360.9 532.6 342.6 543.4C342.5 543.7 342.3 544 342.1 544.3 342 544.5 342 545.3 342.1 545.7 342.6 546.7 343.6 546.9 344.4 546.2L361.1 536.4 361.1 545.5 352.8 550.8C352.5 550.7 352.4 550.9 352.2 551.2 351.9 551.8 351.9 552.5 352.3 553.1 352.7 553.7 353.7 553.8 354.6 553.6L361.3 549.3 361.6 560.7C361.6 561.4 362.3 562.2 363.3 562.4 364.1 562.1 364.9 561.4 364.9 560.7L364.6 549.9 370.5 553.2C371.3 553.6 372.3 553.1 372.6 552.5 373.1 551.7 373 550.5 372.2 550.1L364.6 545.9 364.5 536.8 380.2 545.4C381 545.8 381.9 545.6 382.4 544.7 382.8 543.9 382.6 543 381.7 542.6L364.3 533 363.9 525.1 380.7 515 387.2 518.6 387.7 538.9C387.6 539.9 388.5 540.8 389.4 540.5 390.4 540.7 390.9 539.9 391 538.9L390.6 520.4 398.7 524.8 398.8 534C398.8 534.7 399.7 535.6 400.5 535.7S402.1 534.7 402.3 533.7L402.1 526.7 411.9 532.1C412.7 532.5 413.8 532 414.2 531.1 414.5 530.6 414.4 529.4 413.6 529L403.8 523.6 409.9 519.7C410.5 519.3 411 518.4 410.4 517.4 410 516.8 408.8 516.5 408.2 516.9L400.4 521.8 392.3 517.3 408.1 507.7C408.8 507 409.3 506.2 408.7 505.2 408.3 504.6 407.1 504.2 406.5 504.7L388.9 515.5 382.4 511.9 381.9 492.3 388.7 488.4 406.1 497.9C407 498.4 407.8 498.1 408.3 497.3 408.8 496.4 408.7 495.3 407.8 494.8L392.1 486.2 399.9 481.4 407.5 485.5C408.3 486 409.2 485.7 409.6 484.9 410.1 484 409.8 483.2 409 482.7L403.1 479.5 412.3 473.9C412.9 473.5 413.2 472.3 412.8 471.7 412.1 470.9 411.3 470.5 410.6 471.2L400.9 476.8 400.7 469.1C400.5 468.2 399.8 467.5 399.1 467.4 398.4 467.4 397.8 467.8 397.5 468.4 397.5 468.4 397.3 468.7 397.5 469.1L397.5 479 389.8 483.9 389 464.5C389.2 463.5 388.5 462.8 387.4 462.9 386.9 463 386.5 463.1 386.2 463.7 386 464 385.9 464.2 385.7 464.5L386.5 485.7 380.1 489.5 363 480.1 362.8 471.7 379.8 461.3C380.9 460.8 381 459.8 380.4 459 380.1 458.2 379.1 458 378.1 458.5L362.7 468 362.3 458.6 369.9 454.1C370.5 453.6 370.7 452.7 370.4 451.8 369.8 451 368.9 450.6 368.2 451.3L362.3 454.6 362 444.6C362.2 443.6 361.3 443.1 360.3 443 359.9 443.1 359.3 443.5 359 444.1 359 444.1 358.8 444.3 358.7 444.6L359 455.4 352 451.5C351.4 451.2 350.3 451.3 349.8 452.2 349.4 453 349.9 454 350.4 454.3L359.2 459.1 359.5 468.4 342.4 459.1C341.6 458.6 340.5 459.1 340.1 460S339.9 461.7 340.7 462.2L359.5 472.4 359.7 480.2 342.8 490.3 335.5 486.3 335.1 465.7C334.9 464.8 334.2 464.1 333.2 463.9 332.8 464 332.2 464.4 331.9 465 331.7 465.3 331.6 465.5 331.7 466L332.2 484.5 324 480 323.6 470.7C323.7 470 323 469.2 322 469.1 321.1 469.3 320.4 470 320.4 470.7L320.7 478.2 311.7 473.3C311.1 473 309.8 473.3 309.5 473.9 309 474.7 309.4 476 310 476.3L319 481.3 312.7 484.8C312.5 485 312.4 485.3 312.2 485.6 311.9 486.2 311.9 486.9 312 487.3 312.7 488 313.7 488.2 314.6 488L322.3 483.1 330.5 487.6 314.7 497.1C313.6 497.7 313.5 498.7 313.9 499.3 314.4 500.3 315.4 500.5 316.3 500.2L333.8 489.4 341.1 493.4 341.7 513 335.1 517.1 316.3 506.8C315.5 506.3 314.6 506.6 314.1 507.4 313.7 508.3 313.9 509.1 314.8 509.6L331.9 519 323.9 523.7 315.2 518.9C314.6 518.6 313.3 519 312.8 519.8 312.4 520.7 312.9 521.7 313.5 522L320.5 525.9 311.3 531.4C311.1 531.7 311.1 531.7 311 531.9 310.6 532.5 310.6 533.2 310.7 533.7 311.4 534.4 312.4 534.6 313 534.2ZM344.5 495.2L344.6 493.1 346.2 492.1 359.8 483.9 361.4 483 363.1 483.9 376.9 491.4 378.6 492.3 378.6 494.2 379.1 510.1 379.1 512 377.4 513.2 363.9 521.1 362.1 522.4 360.5 521.4 346.7 513.9 345 513 345.1 510.9 344.5 495.2Z" fill="rgba(169, 169, 169, 1)"></path></g><defs><mask id="SvgjsMask1010"><rect width="1440" height="560" fill="#ffffff"></rect></mask><filter id="SvgjsFilter1011"><feGaussianBlur stdDeviation="1"></feGaussianBlur></filter></defs></svg>