<svg xmlns="http://www.w3.org/2000/svg" version="1.1" xmlns:xlink="http://www.w3.org/1999/xlink" xmlns:svgjs="http://svgjs.dev/svgjs" width="1440" height="560" preserveAspectRatio="none" viewBox="0 0 1440 560"><g mask="url(&quot;#SvgjsMask1004&quot;)" fill="none"><path d="M197.29 104.57L262.25 142.07L262.25 217.07L197.29 254.57L132.34 217.07L132.34 142.07zM262.25 -7.93L327.2 29.57L327.2 104.57L262.25 142.07L197.29 104.57L197.29 29.57zM327.2 329.57L392.15 367.07L392.15 442.07L327.2 479.57L262.25 442.07L262.25 367.07zM716.92 554.57L781.88 592.07L781.88 667.07L716.92 704.57L651.97 667.07L651.97 592.07zM911.78 217.07L976.74 254.57L976.74 329.57L911.78 367.07L846.83 329.57L846.83 254.57zM1171.6 217.07L1236.55 254.57L1236.55 329.57L1171.6 367.07L1106.64 329.57L1106.64 254.57zM1301.51 217.07L1366.46 254.57L1366.46 329.57L1301.51 367.07L1236.55 329.57L1236.55 254.57z" stroke="rgba(147, 147, 147, 1)" stroke-width="2"></path><path d="M189.79 104.57 a7.5 7.5 0 1 0 15 0 a7.5 7.5 0 1 0 -15 0zM254.75 142.07 a7.5 7.5 0 1 0 15 0 a7.5 7.5 0 1 0 -15 0zM254.75 217.07 a7.5 7.5 0 1 0 15 0 a7.5 7.5 0 1 0 -15 0zM189.79 254.57 a7.5 7.5 0 1 0 15 0 a7.5 7.5 0 1 0 -15 0zM124.84 217.07 a7.5 7.5 0 1 0 15 0 a7.5 7.5 0 1 0 -15 0zM124.84 142.07 a7.5 7.5 0 1 0 15 0 a7.5 7.5 0 1 0 -15 0zM254.75 -7.93 a7.5 7.5 0 1 0 15 0 a7.5 7.5 0 1 0 -15 0zM319.7 29.57 a7.5 7.5 0 1 0 15 0 a7.5 7.5 0 1 0 -15 0zM319.7 104.57 a7.5 7.5 0 1 0 15 0 a7.5 7.5 0 1 0 -15 0zM189.79 29.57 a7.5 7.5 0 1 0 15 0 a7.5 7.5 0 1 0 -15 0zM319.7 329.57 a7.5 7.5 0 1 0 15 0 a7.5 7.5 0 1 0 -15 0zM384.65 367.07 a7.5 7.5 0 1 0 15 0 a7.5 7.5 0 1 0 -15 0zM384.65 442.07 a7.5 7.5 0 1 0 15 0 a7.5 7.5 0 1 0 -15 0zM319.7 479.57 a7.5 7.5 0 1 0 15 0 a7.5 7.5 0 1 0 -15 0zM254.75 442.07 a7.5 7.5 0 1 0 15 0 a7.5 7.5 0 1 0 -15 0zM254.75 367.07 a7.5 7.5 0 1 0 15 0 a7.5 7.5 0 1 0 -15 0zM709.42 554.57 a7.5 7.5 0 1 0 15 0 a7.5 7.5 0 1 0 -15 0zM774.38 592.07 a7.5 7.5 0 1 0 15 0 a7.5 7.5 0 1 0 -15 0zM774.38 667.07 a7.5 7.5 0 1 0 15 0 a7.5 7.5 0 1 0 -15 0zM709.42 704.57 a7.5 7.5 0 1 0 15 0 a7.5 7.5 0 1 0 -15 0zM644.47 667.07 a7.5 7.5 0 1 0 15 0 a7.5 7.5 0 1 0 -15 0zM644.47 592.07 a7.5 7.5 0 1 0 15 0 a7.5 7.5 0 1 0 -15 0zM904.28 217.07 a7.5 7.5 0 1 0 15 0 a7.5 7.5 0 1 0 -15 0zM969.24 254.57 a7.5 7.5 0 1 0 15 0 a7.5 7.5 0 1 0 -15 0zM969.24 329.57 a7.5 7.5 0 1 0 15 0 a7.5 7.5 0 1 0 -15 0zM904.28 367.07 a7.5 7.5 0 1 0 15 0 a7.5 7.5 0 1 0 -15 0zM839.33 329.57 a7.5 7.5 0 1 0 15 0 a7.5 7.5 0 1 0 -15 0zM839.33 254.57 a7.5 7.5 0 1 0 15 0 a7.5 7.5 0 1 0 -15 0zM1164.1 217.07 a7.5 7.5 0 1 0 15 0 a7.5 7.5 0 1 0 -15 0zM1229.05 254.57 a7.5 7.5 0 1 0 15 0 a7.5 7.5 0 1 0 -15 0zM1229.05 329.57 a7.5 7.5 0 1 0 15 0 a7.5 7.5 0 1 0 -15 0zM1164.1 367.07 a7.5 7.5 0 1 0 15 0 a7.5 7.5 0 1 0 -15 0zM1099.14 329.57 a7.5 7.5 0 1 0 15 0 a7.5 7.5 0 1 0 -15 0zM1099.14 254.57 a7.5 7.5 0 1 0 15 0 a7.5 7.5 0 1 0 -15 0zM1294.01 217.07 a7.5 7.5 0 1 0 15 0 a7.5 7.5 0 1 0 -15 0zM1358.96 254.57 a7.5 7.5 0 1 0 15 0 a7.5 7.5 0 1 0 -15 0zM1358.96 329.57 a7.5 7.5 0 1 0 15 0 a7.5 7.5 0 1 0 -15 0zM1294.01 367.07 a7.5 7.5 0 1 0 15 0 a7.5 7.5 0 1 0 -15 0z" fill="rgba(147, 147, 147, 1)"></path><path d="M101.9 120.82L145.2 145.82L145.2 195.82L101.9 220.82L58.59 195.82L58.59 145.82zM145.2 195.82L188.5 220.82L188.5 270.82L145.2 295.82L101.9 270.82L101.9 220.82zM231.8 45.82L275.11 70.82L275.11 120.82L231.8 145.82L188.5 120.82L188.5 70.82zM188.5 270.82L231.8 295.82L231.8 345.82L188.5 370.82L145.2 345.82L145.2 295.82zM231.8 495.82L275.11 520.82L275.11 570.82L231.8 595.82L188.5 570.82L188.5 520.82zM275.11 120.82L318.41 145.82L318.41 195.82L275.11 220.82L231.8 195.82L231.8 145.82zM361.71 -29.18L405.01 -4.18L405.01 45.82L361.71 70.82L318.41 45.82L318.41 -4.18zM361.71 120.82L405.01 145.82L405.01 195.82L361.71 220.82L318.41 195.82L318.41 145.82zM405.01 195.82L448.32 220.82L448.32 270.82L405.01 295.82L361.71 270.82L361.71 220.82zM491.62 345.82L534.92 370.82L534.92 420.82L491.62 445.82L448.32 420.82L448.32 370.82zM534.92 -29.18L578.22 -4.18L578.22 45.82L534.92 70.82L491.62 45.82L491.62 -4.18zM578.22 345.82L621.52 370.82L621.52 420.82L578.22 445.82L534.92 420.82L534.92 370.82zM664.83 45.82L708.13 70.82L708.13 120.82L664.83 145.82L621.52 120.82L621.52 70.82zM664.83 195.82L708.13 220.82L708.13 270.82L664.83 295.82L621.52 270.82L621.52 220.82zM664.83 345.82L708.13 370.82L708.13 420.82L664.83 445.82L621.52 420.82L621.52 370.82zM708.13 270.82L751.43 295.82L751.43 345.82L708.13 370.82L664.83 345.82L664.83 295.82zM794.74 420.82L838.04 445.82L838.04 495.82L794.74 520.82L751.43 495.82L751.43 445.82zM881.34 270.82L924.64 295.82L924.64 345.82L881.34 370.82L838.04 345.82L838.04 295.82zM924.64 495.82L967.95 520.82L967.95 570.82L924.64 595.82L881.34 570.82L881.34 520.82zM967.95 120.82L1011.25 145.82L1011.25 195.82L967.95 220.82L924.64 195.82L924.64 145.82zM1011.25 195.82L1054.55 220.82L1054.55 270.82L1011.25 295.82L967.95 270.82L967.95 220.82zM1097.85 45.82L1141.15 70.82L1141.15 120.82L1097.85 145.82L1054.55 120.82L1054.55 70.82zM1097.85 345.82L1141.15 370.82L1141.15 420.82L1097.85 445.82L1054.55 420.82L1054.55 370.82zM1097.85 495.82L1141.15 520.82L1141.15 570.82L1097.85 595.82L1054.55 570.82L1054.55 520.82zM1184.46 45.82L1227.76 70.82L1227.76 120.82L1184.46 145.82L1141.15 120.82L1141.15 70.82zM1357.67 195.82L1400.97 220.82L1400.97 270.82L1357.67 295.82L1314.37 270.82L1314.37 220.82zM1400.97 120.82L1444.27 145.82L1444.27 195.82L1400.97 220.82L1357.67 195.82L1357.67 145.82z" stroke="rgba(169, 169, 169, 1)" stroke-width="2"></path></g><defs><mask id="SvgjsMask1004"><rect width="1440" height="560" fill="#ffffff"></rect></mask></defs></svg>