<svg xmlns="http://www.w3.org/2000/svg" version="1.1" xmlns:xlink="http://www.w3.org/1999/xlink" xmlns:svgjs="http://svgjs.dev/svgjs" width="1440" height="560" preserveAspectRatio="none" viewBox="0 0 1440 560"><g mask="url(&quot;#SvgjsMask3068&quot;)" fill="none"><use xlink:href="#SvgjsG3095" transform="translate(0, 0)" fill="rgba(169, 169, 169, 1)"></use><use xlink:href="#SvgjsG3095" transform="translate(1025, 0)" fill="rgba(169, 169, 169, 1)"></use></g><defs><mask id="SvgjsMask3068"><rect width="1440" height="560" fill="#ffffff"></rect></mask><g id="SvgjsG3081"><path d="M6.498 9.304L12.139 3.663l1.565 1.566-5.641 5.641z"></path><path d="M6.8 0.457h2.541v8.028H6.8z"></path><path d="M8.072 10.876L2.429 5.238l1.563-1.566L9.636 9.313zM1.2 13.277h13.733v2.266H1.2z"></path><path d="M0.733 9.143h2.267v6.4h-2.267z m12.267 0h2.267v6.4h-2.267z"></path></g><g id="SvgjsG3086"><path d="M7.713 15.485C3.459 15.485 0 12.025 0 7.768 0 3.513 3.459 0.051 7.713 0.051S15.432 3.513 15.432 7.768c0 4.257-3.465 7.716-7.719 7.717z m0-1.91c3.201 0 5.81-2.604 5.81-5.809 0-3.199-2.61-5.807-5.81-5.807-3.202 0-5.804 2.609-5.804 5.807-0.001 3.206 2.602 5.809 5.804 5.809z"></path><path d="M7.753 8.787a0.574 0.574 0 0 1-0.554-0.042 0.578 0.578 0 0 1-0.259-0.399L6.931 3.862a0.58 0.58 0 0 1 1.162 0v3.478l2.975-1.4a0.578 0.578 0 0 1 0.773 0.275c0.138 0.292 0.011 0.637-0.276 0.774l-3.81 1.798z"></path></g><g id="SvgjsG3082"><path d="M11.986 8.245a46.749 46.749 0 0 1-0.521-0.411c-0.146-0.116-0.293-0.233-0.44-0.348-0.88-0.688-1.797-1.316-2.816-1.407A2.815 2.815 0 0 0 7.954 6.067c-0.086 0-0.171 0.011-0.255 0.018-1.022 0.093-1.942 0.717-2.826 1.408l0.093 0.073c0.108 0.085 0.213 0.168 0.32 0.252C6.165 7.137 7.021 6.576 7.954 6.576c0.93 0 1.784 0.558 2.66 1.236a35.098 35.098 0 0 1 0.535 0.421c0.142 0.113 0.283 0.226 0.426 0.338C12.532 9.32 13.531 10 14.658 10c0.437 0 0.854-0.104 1.257-0.273v-0.557c-0.409 0.197-0.825 0.32-1.257 0.32-0.934 0-1.792-0.563-2.672-1.245z"></path><path d="M11.574 7.496c0.029 0.023 0.059 0.046 0.088 0.07 0.109 0.087 0.216 0.17 0.325 0.256 0.318-0.246 0.635-0.476 0.952-0.67v1.37c0.17 0.111 0.34 0.214 0.51 0.301V6.878c0.315-0.147 0.634-0.248 0.96-0.283v2.537c0.078 0.01 0.157 0.018 0.237 0.018 0.091 0 0.183-0.009 0.273-0.021V6.592c0.34 0.037 0.67 0.144 0.996 0.3V6.336C15.514 6.17 15.099 6.067 14.664 6.067c-1.128 0-2.13 0.68-3.09 1.429z m-7.248 1.08c-0.034-0.027-0.068-0.053-0.102-0.08-0.104-0.083-0.207-0.162-0.31-0.245-0.877 0.678-1.733 1.238-2.665 1.238C0.82 9.49 0.407 9.36 0 9.152v0.562C0.401 9.891 0.815 10 1.249 10c1.124 0 2.122-0.677 3.077-1.423z"></path><path d="M0.989 9.133c0.084 0.011 0.17 0.019 0.254 0.02 0.086 0 0.171-0.008 0.256-0.02V6.592c0.329 0.035 0.65 0.136 0.967 0.285-0.002 0.012-0.007 0.023-0.007 0.036v1.903a5.818 5.818 0 0 0 0.51-0.303V7.152c0.487 0.3 0.971 0.684 1.467 1.08C5.525 9.101 6.652 10 7.948 10c1.123 0 2.121-0.675 3.078-1.42l-0.106-0.084c-0.103-0.082-0.205-0.161-0.306-0.242-0.313 0.242-0.622 0.466-0.934 0.658V7.564A5.816 5.816 0 0 0 9.17 7.261v1.893c0 0.01 0.004 0.019 0.005 0.029-0.316 0.149-0.637 0.252-0.965 0.288V6.937a1.97 1.97 0 0 0-0.267-0.02c-0.082 0-0.163 0.008-0.243 0.017v2.541c-0.33-0.035-0.652-0.136-0.969-0.283 0.002-0.013 0.006-0.024 0.006-0.039V7.248a5.629 5.629 0 0 0-0.51 0.302v1.368c-0.49-0.299-0.976-0.686-1.474-1.083C3.666 6.966 2.539 6.067 1.243 6.067c-0.432 0-0.844 0.096-1.243 0.251v0.55c0.324-0.144 0.652-0.244 0.989-0.278V9.133z"></path></g><g id="SvgjsG3085"><path d="M15.233 9.431c0.295 0 0.569-0.239 0.61-0.532 0 0 0.056-0.411 0.056-0.899s-0.056-0.899-0.056-0.899c-0.041-0.292-0.315-0.531-0.61-0.53h-1.524c-0.295 0-0.602-0.188-0.681-0.418s-0.188-0.967 0.021-1.176l1.078-1.077c0.209-0.209 0.225-0.565 0.036-0.792l-1.268-1.268c-0.227-0.189-0.583-0.173-0.792 0.036l-1.078 1.077c-0.208 0.209-0.556 0.293-0.772 0.187s-0.822-0.552-0.821-0.847V0.767c0-0.295-0.239-0.569-0.531-0.61 0 0-0.411-0.057-0.9-0.056s-0.899 0.057-0.899 0.056c-0.293 0.04-0.532 0.315-0.532 0.61v1.524c0 0.295-0.188 0.601-0.418 0.681s-0.967 0.188-1.176-0.021l-1.078-1.078C3.689 1.665 3.333 1.649 3.107 1.837l-1.268 1.268c-0.189 0.227-0.173 0.583 0.036 0.792l1.077 1.078c0.209 0.209 0.293 0.556 0.187 0.772s-0.552 0.822-0.847 0.822H0.767c-0.295 0-0.569 0.239-0.61 0.531 0 0-0.057 0.411-0.056 0.899s0.057 0.899 0.056 0.9c0.04 0.293 0.315 0.532 0.61 0.532h1.525c0.295 0 0.601 0.188 0.681 0.417 0.079 0.23 0.188 0.967-0.02 1.176l-1.078 1.077C1.667 12.311 1.651 12.667 1.84 12.893l1.267 1.268c0.227 0.189 0.583 0.173 0.792-0.036l1.077-1.077c0.209-0.208 0.556-0.292 0.772-0.187s0.821 0.553 0.822 0.848v1.524c0 0.295 0.239 0.569 0.532 0.61 0 0 0.411 0.057 0.899 0.057s0.899-0.056 0.899-0.057c0.293-0.04 0.531-0.315 0.532-0.609v-1.524c0-0.295 0.188-0.602 0.418-0.681 0.23-0.079 0.967-0.188 1.176 0.021l1.077 1.077c0.209 0.209 0.565 0.225 0.792 0.036l1.268-1.267c0.189-0.227 0.173-0.583-0.036-0.792l-1.078-1.077c-0.209-0.209-0.293-0.557-0.186-0.773 0.106-0.216 0.552-0.822 0.847-0.822h1.525zM8 10.892c-1.597 0-2.891-1.294-2.891-2.892 0-1.596 1.295-2.891 2.891-2.891S10.892 6.404 10.892 8 9.597 10.892 8 10.892z"></path></g><g id="SvgjsG3073"><path d="M0.267 14.413h15.466V16H0.267z m0.632-1.535h13.998v0.872H0.899z m1.139-7.74h2.352v7.056h-2.352z m4.693 0h2.352v7.056h-2.352z m4.513 0h2.352v7.056H11.244zM0 3.595L8 0l8 3.595-0.007 0.927L0 4.535z"></path></g><g id="SvgjsG3071"><path d="M2.396 6.756V16h3.56V10.315H10.085V16h3.559V6.756z"></path><path d="M0.064 8L8.02 0l7.956 8z"></path></g><g id="SvgjsG3083"><path d="M14.225 3.277L11.437 4.993v2.573h-1.067V4.125h-1.292V1.133h-3.432v4.899h-1.716v-1.683L2.536 3.492 1.142 4.349v3.003H0.07v7.507l15.442-0.001V9.282h-1.287V3.277z" fill-rule="evenodd"></path></g><g id="SvgjsG3093"><path d="M3.236 14.219c1.457 0 2.639-1.182 2.639-2.641 0-1.454-1.182-2.637-2.639-2.637-1.453 0-2.636 1.182-2.636 2.638 0 1.459 1.182 2.641 2.636 2.642zM0 11.578c0-1.787 1.452-3.234 3.236-3.234 1.789 0 3.239 1.446 3.239 3.234 0 1.79-1.45 3.237-3.239 3.237C1.452 14.815 0 13.367 0 11.578z m12.764 2.671c1.453 0 2.636-1.18 2.636-2.639 0-1.457-1.182-2.637-2.636-2.637-1.457 0-2.639 1.181-2.639 2.638 0 1.459 1.182 2.64 2.639 2.64zM9.525 11.61c0-1.789 1.452-3.236 3.239-3.236 1.784 0 3.236 1.446 3.236 3.236s-1.452 3.237-3.236 3.237c-1.788 0-3.239-1.448-3.239-3.237z m0.009-7.898c0.672 0 1.218-0.542 1.218-1.214S10.206 1.28 9.534 1.28s-1.218 0.546-1.218 1.218 0.546 1.214 1.218 1.214z"></path><path d="M9.584 6.666c-0.176 0.004-0.366-0.084-0.506-0.306l-0.791-1.235-1.631 1.614 1.513 0.795c0.622 0.298 0.528 0.844 0.528 0.844v3.424c0 0.388-0.312 0.704-0.701 0.704s-0.701-0.316-0.7-0.704V9.062l-2.623-1.457a1.02 1.02 0 0 1-0.525-0.889 1.003 1.003 0 0 1 0.262-0.683l2.573-2.577c0.32-0.362 0.765-0.304 0.765-0.304 0.539 0 0.823 0.47 0.823 0.47l1.337 2.095 2.03-0.004c0.729 0 0.729 0.952 0 0.952h-2.353z"></path></g><g id="SvgjsG3088"><path d="M10.596 3.917a0.64 0.64 0 0 0-0.639 0.641c0 0.354 0.287 0.64 0.639 0.64a0.639 0.639 0 0 0 0.639-0.64 0.639 0.639 0 0 0-0.639-0.641z m-0.151 5.25a0.642 0.642 0 0 0 0.643 0.641c0.352 0 0.638-0.286 0.637-0.64a0.639 0.639 0 0 0-0.637-0.641 0.641 0.641 0 0 0-0.642 0.641z m-4.678-5.945a0.641 0.641 0 0 0 0 1.282 0.64 0.64 0 0 0 0.642-0.64 0.641 0.641 0 0 0-0.642-0.642z"></path><path d="M8.659 0C5.904 0 3.363 2.068 2.835 4.347c-0.119 0.507-0.25 1.83-0.25 1.829L1.316 9.37A0.488 0.488 0 0 0 1.28 9.561a0.491 0.491 0 0 0 0.491 0.489h0.814v1.697c0 1.323 1.072 2.395 2.394 2.395h0.951V16H12.408V10.847c1.413-1.111 2.32-2.838 2.32-4.775C14.728 2.718 12.01 0 8.659 0z m-4.583 7.387c-0.372 0-0.675-0.304-0.675-0.679a0.677 0.677 0 0 1 0.675-0.677c0.375 0 0.68 0.303 0.68 0.677a0.68 0.68 0 0 1-0.68 0.679z m8.959-0.918l-0.631 0.632-0.77-0.543c-0.148 0.077-0.304 0.139-0.467 0.18l-0.142 0.838h0.294l0.079 0.448c0.031 0.008 0.062 0.013 0.092 0.024 0.079 0.029 0.152 0.067 0.22 0.11l0.355-0.25 0.292 0.291-0.262 0.371c0.056 0.1 0.101 0.206 0.125 0.318l0.429 0.074v0.412l-0.446 0.076c-0.009 0.032-0.013 0.063-0.024 0.094a1.147 1.147 0 0 1-0.112 0.223l0.251 0.353-0.292 0.291-0.369-0.262a1.149 1.149 0 0 1-0.318 0.126l-0.075 0.429H10.851l-0.074-0.448c-0.032-0.009-0.064-0.013-0.096-0.025a1.174 1.174 0 0 1-0.221-0.11l-0.356 0.252L9.815 10.08l0.262-0.37a1.151 1.151 0 0 1-0.125-0.319l-0.431-0.074v-0.411l0.45-0.077c0.008-0.032 0.013-0.063 0.025-0.094 0.029-0.079 0.066-0.152 0.109-0.22l-0.251-0.356 0.291-0.291 0.371 0.262a1.174 1.174 0 0 1 0.317-0.125l0.064-0.372h-0.776L9.96 6.704c-0.035-0.011-0.07-0.02-0.104-0.034a2.221 2.221 0 0 1-0.352-0.168l-0.744 0.524-0.63-0.632 0.542-0.767a2.184 2.184 0 0 1-0.181-0.469l-0.894-0.154V4.27l-0.449 0.078c-0.007 0.022-0.009 0.044-0.017 0.065a1.402 1.402 0 0 1-0.109 0.223l0.345 0.489-0.416 0.414-0.506-0.357a1.438 1.438 0 0 1-0.294 0.116l-0.102 0.586-0.584 0-0.106-0.611c-0.02-0.007-0.042-0.009-0.062-0.017a1.43 1.43 0 0 1-0.226-0.11l-0.49 0.345-0.414-0.415 0.359-0.508a1.485 1.485 0 0 1-0.112-0.291L3.824 4.176V3.589l0.608-0.105c0.007-0.022 0.012-0.043 0.02-0.063 0.029-0.08 0.068-0.154 0.109-0.225l-0.345-0.488 0.413-0.415 0.508 0.358a1.439 1.439 0 0 1 0.295-0.117l0.102-0.586h0.584L6.224 2.56c0.021 0.007 0.043 0.008 0.063 0.016 0.08 0.03 0.154 0.069 0.225 0.11l0.489-0.344 0.415 0.414-0.359 0.507a1.397 1.397 0 0 1 0.115 0.293l0.586 0.101v0.427l0.768-0.132c0.011-0.035 0.02-0.07 0.033-0.105 0.046-0.126 0.104-0.243 0.17-0.355l-0.528-0.74 0.634-0.633 0.77 0.544a2.192 2.192 0 0 1 0.468-0.181l0.151-0.894h0.894l0.162 0.928c0.035 0.01 0.069 0.02 0.104 0.033 0.124 0.046 0.241 0.104 0.352 0.168l0.743-0.523 0.629 0.631-0.542 0.77c0.077 0.148 0.138 0.304 0.18 0.466l0.895 0.154v0.894l-0.929 0.16c-0.011 0.035-0.02 0.07-0.032 0.104-0.046 0.125-0.104 0.242-0.17 0.353l0.525 0.743z"></path></g><g id="SvgjsG3077"><path d="M7.45 12.652S6.4 11.121 3.725 11.121C1.274 11.121 0 11.833 0 11.833V1.937s1.274-0.712 3.725-0.729C6.4 1.19 7.45 2.756 7.45 2.756V12.652z m1.087 0s1.05-1.531 3.725-1.531c2.451 0 3.725 0.712 3.725 0.713V1.937s-1.274-0.712-3.725-0.729c-2.675-0.017-3.725 1.548-3.725 1.548v9.896z"></path><path d="M8.012 15.733S6.4 13.411 3.725 13.411c-2.451 0-3.725 0.712-3.725 0.712v-1.186s1.274-0.712 3.725-0.729c2.675-0.018 4.287 2.34 4.287 2.34V15.733z m0 0s1.612-2.323 4.287-2.323c2.451 0 3.725 0.712 3.725 0.712v-1.185s-1.274-0.712-3.725-0.729c-2.675-0.019-4.287 2.339-4.287 2.339v1.185z"></path></g><g id="SvgjsG3069"><path d="M9.412 5.113c1.273 0 2.378 0.701 2.988 1.734l3.596 0.004v-1.949c0-0.725-0.584-1.314-1.299-1.314H1.295C0.578 3.588 0 4.176 0 4.902l0.004 1.932 6.418 0.005c0.614-1.029 1.715-1.725 2.99-1.725M3.361 2.97h-1.192l-0.138 0.434h1.429l-0.099-0.434zM14.11 2.738h-1.587L12.242 3.408H14.368l-0.258-0.67zM8.662 3.177h-1.366V2.508h1.366v0.669zM9.914 2.24h-3.857l-0.795 1.176h5.38L9.914 2.24z m2.672 4.955c0.199 0.443 0.316 0.93 0.316 1.449 0 1.949-1.563 3.531-3.49 3.531-1.93 0-3.493-1.582-3.493-3.531 0-0.519 0.116-1.006 0.316-1.451H0V12.514c0 0.721 0.577 1.309 1.295 1.309h13.401c0.716 0 1.299-0.588 1.3-1.309L16 7.195H12.586z"></path><path d="M11.315 7.484a1.717 1.717 0 0 0-0.199-0.278c-0.408-0.496-1.018-0.822-1.704-0.823-0.69 0-1.299 0.324-1.707 0.818-0.075 0.09-0.144 0.182-0.203 0.283-0.205 0.34-0.33 0.734-0.329 1.16 0 1.246 1.002 2.258 2.237 2.258 1.23 0 2.232-1.013 2.232-2.259 0-0.427-0.122-0.819-0.329-1.16"></path></g><g id="SvgjsG3076"><path d="M1.316 13.81h14.019V3.175H1.316v10.635z m12.302-9.643L9.143 8.635c-0.457 0.459-1.269 0.448-1.735-0.018l-4.444-4.45h10.648z m-11.31 0.693l3.626 3.638-3.637 3.644 0.007-7.278z m0.654 7.97l3.641-3.635 0.156 0.149c0.86 0.818 2.228 0.818 3.049 0l0.156-0.156 3.663 3.644h-10.667z m11.353-0.693L10.677 8.501 14.311 4.862V12.142z" fill-rule="evenodd"></path></g><g id="SvgjsG3078"><path d="M3.044 12.188V8.93c0-2.836 2.475-5.244 5.463-5.245 3.022-0.004 5.465 2.352 5.465 5.245v3.258h1.351V8.93C15.332 5.276 12.27 2.325 8.51 2.325 4.777 2.325 1.689 5.333 1.689 8.93v3.258h1.355z"></path><path d="M5.463 14.702l-1.781 0.006V9.593h1.785c0.921 2.372 0 5.111 0 5.111m6.049-5.109H13.298V14.702l-1.783 0.006c-0.921-2.373 0-5.113 0-5.113"></path></g><g id="SvgjsG3090"><path d="M15.065 12.151H0.02c0 1.333 1.015 1.95 1.83 1.95h11.386c0.975 0 1.83-0.767 1.829-1.951zM12.853 2.166H1.869v7.208c0 0.976 0.843 1.75 1.755 1.75h7.121c1.031 0 1.731-0.863 1.731-1.749V8.773c2.031 0 3.505-1.527 3.505-3.303 0-1.815-1.445-3.303-3.126-3.303z m1.832 3.305c0 1.036-0.763 2.025-2.21 1.931V3.519l0.378 0 0 0.001c1.391 0 1.837 1.318 1.832 1.952v-0.001z"></path></g><g id="SvgjsG3094"><path d="M15.828 7.44l-1.288-1.3H6.996C6.352 5.004 5.141 4.237 3.752 4.24 1.681 4.236 0.004 5.93 0 8.016c0.005 2.091 1.681 3.785 3.751 3.788 1.386-0.002 2.594-0.767 3.24-1.9h1.517l1.202-1.202 0.92 0.92 0.882-0.883 0.908 0.906 0.919-0.919 0.919 0.919 1.57-1.568c0.226-0.236 0.233-0.402 0-0.637zM2.109 9.009c-0.553-0.005-0.998-0.455-0.993-1.006-0.005-0.558 0.44-1.008 0.993-1.005 0.544-0.003 0.989 0.447 0.993 1.005-0.004 0.55-0.449 1-0.993 1.006z"></path></g><g id="SvgjsG3070"><path d="M3.312 10.09l3.972 2.294-0.394 0.681L2.919 10.771 3.312 10.09z"></path><path d="M10.944 14.37c1.147-1.084 1.874-2.605 1.874-4.304 0-2.093-1.099-3.981-2.809-5.041l1.915-3.315-0.3-0.174L12.096 0.715 10.858 0 10.384 0.82l-0.317-0.183-4.708 8.156 0.411 0.238-0.584 1.01 1.035 0.597 0.584-1.01 0.41 0.237 1.98-3.429c1.214 0.774 1.993 2.13 1.993 3.63 0 2.373-1.932 4.304-4.305 4.304H3.413V16h9.766V14.37H10.944z"></path></g><g id="SvgjsG3089"><path d="M11.675 13.031H3.563V2.436h8.112v10.595z m-4.054 1.54a0.457 0.457 0 1 1 0-0.912 0.457 0.457 0 0 1 0 0.912zM6.921 1.287h1.395c0.196 0 0.196 0.356 0 0.356h-1.397c-0.199 0-0.199-0.356 0-0.356zM11.495 0.409H3.744C3.413 0.409 3.143 0.761 3.143 1.191V14.276c0 0.427 0.267 0.779 0.601 0.778h7.751c0.332 0 0.604-0.35 0.605-0.778V1.191c0-0.432-0.272-0.782-0.605-0.782z" fill-rule="evenodd"></path></g><g id="SvgjsG3075"><path d="M6.846 8.046l0.633 0.934h1.178l0.544-0.934-0.573-0.995h-1.181l-0.601 0.995zM7.331 15.562V13.449l-1.181 0.664-0.601-0.345V13.024l1.751-0.995V10.64l-1.271 0.816v-1.471l-1.214 0.7v1.994l-0.664 0.412-0.561-0.372V11.382L1.747 12.422 0.96 12.091V11.248l1.934-1.058-1.21-0.608v-0.771l0.687-0.376 1.735 1.022 1.206-0.696-0.03-0.022-1.232-0.707 1.197-0.742-1.201-0.696L2.311 7.614l-0.651-0.324v-0.769l1.174-0.66L0.96 4.844v-0.844l0.72-0.371 1.847 1.067v-1.36l0.557-0.375 0.682 0.393-0.004 2.035 1.241 0.709-0.005-1.438 1.301 0.7v-1.388L5.549 2.974v-0.738l0.601-0.348 1.181 0.664V0.443L8.006 0l0.682 0.443v2.109l1.224-0.678 0.615 0.407v0.664L8.715 3.972v1.388l1.239-0.755v1.511l1.277-0.696v-2.176l0.615-0.286 0.646 0.286v1.392l1.901-1.027 0.664 0.405v0.787l-1.856 1.055 1.161 0.651v0.751L13.76 7.592l-1.782-1.053-1.232 0.782 1.192 0.743-1.228 0.706 1.268 0.664L13.76 8.439l0.572 0.405v0.718L13.214 10.19l1.781 1.058v0.83l-0.754 0.344-1.749-0.995v1.317l-0.628 0.351-0.615-0.351V10.745l-1.295-0.737v1.388L8.715 10.64v1.389L10.466 13.024v0.787l-0.605 0.302-1.173-0.664v2.113L8.006 16l-0.675-0.438z"></path></g><g id="SvgjsG3072"><path d="M15.02 9.49l-0.733-1.271-2.086 1.205L9.733 8l2.468-1.424 2.087 1.205 0.733-1.271-1.354-0.781 1.68-0.97-0.867-1.501-1.679 0.97v-1.563h-1.467v2.409L8.867 6.499V3.65l2.087-1.205-0.734-1.27L8.867 1.956V0.018h-1.734v1.939L5.78 1.175l-0.733 1.27 2.086 1.205V6.499L4.666 5.074V2.665h-1.466v1.562l-1.679-0.969-0.867 1.501 1.679 0.97-1.354 0.781 0.734 1.27 2.087-1.205L6.267 8 3.8 9.424l-2.087-1.205-0.733 1.271 1.353 0.781-1.679 0.969 0.867 1.502 1.679-0.97v1.564h1.466V10.925L7.133 9.501v2.849l-2.086 1.205 0.733 1.27 1.353-0.782v1.938h1.734v-1.938l1.353 0.782 0.733-1.27-2.086-1.205v-2.849L11.334 10.925v2.41h1.467V11.772l1.679 0.969 0.867-1.501-1.68-0.969z"></path><path d="M-12.034 8v7.981"></path><path d="M-12.034 12.696l2.586 1.493"></path><path d="M-12.034 8V0.018"></path><path d="M-12.034 3.304l-2.587-1.494m2.587 1.494l2.587-1.494m-2.587 10.886l-2.587 1.493"></path><path d="M-12.034 8L-18.947 11.991"></path><path d="M-16.101 10.348v2.988"></path><path d="M-12.034 8l6.912-3.991"></path><path d="M-7.967 5.652V2.665m0 2.987l2.587 1.493m-10.721 3.203l-2.587-1.493"></path><path d="M-12.034 8L-18.947 4.009"></path><path d="M-16.101 5.652l-2.587 1.493"></path><path d="M-12.034 8l6.912 3.991"></path><path d="M-7.967 10.348l2.587-1.493m-2.587 1.493v2.987m-8.134-7.683V2.665"></path></g><g id="SvgjsG3074"><path d="M14.232 5.485L6.361 15.96l1.815-7.368-4.222 0.071L5.679 0h5.121L8.744 5.489z"></path></g><g id="SvgjsG3091"><path d="M8 1.076C3.594 1.076 0.023 3.767 0.023 7.088c0 1.625 0.857 3.099 2.248 4.181l0.003 3.607 4.168-1.892c0.504 0.075 1.025 0.115 1.558 0.116 4.406 0 7.976-2.692 7.976-6.012C15.976 3.767 12.406 1.076 8 1.076z" fill-rule="evenodd"></path></g><g id="SvgjsG3084"><path d="M14.344 10.747c0 2.735-2.217 4.952-4.952 4.952-2.735 0-4.952-2.217-4.953-4.952 0-1.3 0.294-3.189 2.021-4.918 3.16-3.16 3.308-4.973 3.308-4.973 3.797 3.797 4.576 7.155 4.576 9.889z"></path><path d="M3.978 3.8s0.461 3.022 3.141 4.749c1.488 0.959 4.571 3.643 4.57 4.584 0 1.981-4.712 2.565-6.693 2.566s-3.588-1.606-3.588-3.588c0-1.982-0.18-5.56 2.571-8.311z"></path><path d="M8.123 6.557s0.08 0.983 1.792 2.695c0.936 0.935 1.095 1.959 1.095 2.663 0 1.482-1.201 2.683-2.684 2.683s-2.683-1.201-2.683-2.684c0-1.481 0.422-3.301 2.48-5.358z"></path></g><g id="SvgjsG3087"><path d="M5.211 0h5.557v5.234H16v5.539H10.81V15.998h-5.578V10.773H0v-5.539h5.211z"></path></g><g id="SvgjsG3080"><path d="M8.067-0.016c-3.304 0-5.982 2.678-5.982 5.982 0 5.588 5.982 10.054 5.982 10.054s5.982-4.466 5.982-10.054c0-3.304-2.678-5.982-5.982-5.982z m0 8.625c-1.46 0-2.643-1.183-2.643-2.643S6.607 3.323 8.067 3.323s2.643 1.183 2.643 2.643S9.527 8.609 8.067 8.609z"></path></g><g id="SvgjsG3079"><path d="M6.837 0.883c0.002-1.183 1.782-1.183 1.784 0.033v4.953L15.558 10.047v1.826L8.654 9.605V13.307l1.593 1.25V16L7.787 15.242 5.32 16v-1.443l1.584-1.25V9.605L0 11.873V10.047l6.837-4.178V0.883z"></path></g><g id="SvgjsG3092"><path d="M14.548 5.951L13.236 2.565C12.991 1.916 12.455 1.365 11.441 1.36H4.548c-1.01 0.005-1.546 0.556-1.795 1.205l-1.312 3.386C0.92 6.019-0.002 6.63 0 7.79V12.102h1.28v1.377c-0.003 1.697 2.398 1.677 2.397 0V12.102h8.635v1.377c0.005 1.677 2.407 1.697 2.408 0V12.102h1.28V7.79c-0.004-1.16-0.926-1.772-1.452-1.838zM2.516 9.5c-0.613 0.002-1.11-0.51-1.107-1.139-0.003-0.634 0.494-1.146 1.107-1.141 0.612-0.005 1.108 0.507 1.108 1.141 0.001 0.629-0.496 1.141-1.108 1.139zM8 5.92H2.806l0.99-2.667c0.119-0.379 0.305-0.65 0.742-0.656H11.462c0.431 0.006 0.617 0.277 0.742 0.656l0.99 2.665H8z m5.484 3.58c-0.618 0.002-1.115-0.51-1.118-1.139 0.003-0.634 0.5-1.146 1.118-1.141 0.607-0.005 1.104 0.507 1.107 1.141-0.004 0.629-0.5 1.141-1.107 1.139z"></path></g><g id="SvgjsG3095"><use xlink:href="#SvgjsG3069" transform="translate(0, 0) scale(2.5)" fill="rgba(169, 169, 169, 1)"></use><use xlink:href="#SvgjsG3070" transform="translate(0, 102.5) scale(2.5)" fill="rgba(169, 169, 169, 1)"></use><use xlink:href="#SvgjsG3071" transform="translate(0, 205) scale(2.5)" fill="rgba(169, 169, 169, 1)"></use><use xlink:href="#SvgjsG3072" transform="translate(0, 307.5) scale(2.5)" fill="rgba(169, 169, 169, 1)"></use><use xlink:href="#SvgjsG3073" transform="translate(0, 410) scale(2.5)" fill="rgba(169, 169, 169, 1)"></use><use xlink:href="#SvgjsG3074" transform="translate(0, 512.5) scale(2.5)" fill="rgba(169, 169, 169, 1)"></use><use xlink:href="#SvgjsG3075" transform="translate(102.5, 0) scale(2.5)" fill="rgba(169, 169, 169, 1)"></use><use xlink:href="#SvgjsG3076" transform="translate(102.5, 102.5) scale(2.5)" fill="rgba(169, 169, 169, 1)"></use><use xlink:href="#SvgjsG3076" transform="translate(102.5, 205) scale(2.5)" fill="rgba(169, 169, 169, 1)"></use><use xlink:href="#SvgjsG3077" transform="translate(102.5, 307.5) scale(2.5)" fill="rgba(169, 169, 169, 1)"></use><use xlink:href="#SvgjsG3078" transform="translate(102.5, 410) scale(2.5)" fill="rgba(169, 169, 169, 1)"></use><use xlink:href="#SvgjsG3075" transform="translate(102.5, 512.5) scale(2.5)" fill="rgba(169, 169, 169, 1)"></use><use xlink:href="#SvgjsG3079" transform="translate(205, 0) scale(2.5)" fill="rgba(169, 169, 169, 1)"></use><use xlink:href="#SvgjsG3073" transform="translate(205, 102.5) scale(2.5)" fill="rgba(169, 169, 169, 1)"></use><use xlink:href="#SvgjsG3080" transform="translate(205, 205) scale(2.5)" fill="rgba(169, 169, 169, 1)"></use><use xlink:href="#SvgjsG3081" transform="translate(205, 307.5) scale(2.5)" fill="rgba(169, 169, 169, 1)"></use><use xlink:href="#SvgjsG3082" transform="translate(205, 410) scale(2.5)" fill="rgba(169, 169, 169, 1)"></use><use xlink:href="#SvgjsG3078" transform="translate(205, 512.5) scale(2.5)" fill="rgba(169, 169, 169, 1)"></use><use xlink:href="#SvgjsG3080" transform="translate(307.5, 0) scale(2.5)" fill="rgba(169, 169, 169, 1)"></use><use xlink:href="#SvgjsG3083" transform="translate(307.5, 102.5) scale(2.5)" fill="rgba(169, 169, 169, 1)"></use><use xlink:href="#SvgjsG3084" transform="translate(307.5, 205) scale(2.5)" fill="rgba(169, 169, 169, 1)"></use><use xlink:href="#SvgjsG3074" transform="translate(307.5, 307.5) scale(2.5)" fill="rgba(169, 169, 169, 1)"></use><use xlink:href="#SvgjsG3085" transform="translate(307.5, 410) scale(2.5)" fill="rgba(169, 169, 169, 1)"></use><use xlink:href="#SvgjsG3086" transform="translate(307.5, 512.5) scale(2.5)" fill="rgba(169, 169, 169, 1)"></use><use xlink:href="#SvgjsG3077" transform="translate(410, 0) scale(2.5)" fill="rgba(169, 169, 169, 1)"></use><use xlink:href="#SvgjsG3072" transform="translate(410, 102.5) scale(2.5)" fill="rgba(169, 169, 169, 1)"></use><use xlink:href="#SvgjsG3075" transform="translate(410, 205) scale(2.5)" fill="rgba(169, 169, 169, 1)"></use><use xlink:href="#SvgjsG3077" transform="translate(410, 307.5) scale(2.5)" fill="rgba(169, 169, 169, 1)"></use><use xlink:href="#SvgjsG3087" transform="translate(410, 410) scale(2.5)" fill="rgba(169, 169, 169, 1)"></use><use xlink:href="#SvgjsG3087" transform="translate(410, 512.5) scale(2.5)" fill="rgba(169, 169, 169, 1)"></use><use xlink:href="#SvgjsG3079" transform="translate(512.5, 0) scale(2.5)" fill="rgba(169, 169, 169, 1)"></use><use xlink:href="#SvgjsG3072" transform="translate(512.5, 102.5) scale(2.5)" fill="rgba(169, 169, 169, 1)"></use><use xlink:href="#SvgjsG3088" transform="translate(512.5, 205) scale(2.5)" fill="rgba(169, 169, 169, 1)"></use><use xlink:href="#SvgjsG3088" transform="translate(512.5, 307.5) scale(2.5)" fill="rgba(169, 169, 169, 1)"></use><use xlink:href="#SvgjsG3081" transform="translate(512.5, 410) scale(2.5)" fill="rgba(169, 169, 169, 1)"></use><use xlink:href="#SvgjsG3089" transform="translate(512.5, 512.5) scale(2.5)" fill="rgba(169, 169, 169, 1)"></use><use xlink:href="#SvgjsG3081" transform="translate(615, 0) scale(2.5)" fill="rgba(169, 169, 169, 1)"></use><use xlink:href="#SvgjsG3076" transform="translate(615, 102.5) scale(2.5)" fill="rgba(169, 169, 169, 1)"></use><use xlink:href="#SvgjsG3070" transform="translate(615, 205) scale(2.5)" fill="rgba(169, 169, 169, 1)"></use><use xlink:href="#SvgjsG3080" transform="translate(615, 307.5) scale(2.5)" fill="rgba(169, 169, 169, 1)"></use><use xlink:href="#SvgjsG3088" transform="translate(615, 410) scale(2.5)" fill="rgba(169, 169, 169, 1)"></use><use xlink:href="#SvgjsG3090" transform="translate(615, 512.5) scale(2.5)" fill="rgba(169, 169, 169, 1)"></use><use xlink:href="#SvgjsG3069" transform="translate(717.5, 0) scale(2.5)" fill="rgba(169, 169, 169, 1)"></use><use xlink:href="#SvgjsG3078" transform="translate(717.5, 102.5) scale(2.5)" fill="rgba(169, 169, 169, 1)"></use><use xlink:href="#SvgjsG3086" transform="translate(717.5, 205) scale(2.5)" fill="rgba(169, 169, 169, 1)"></use><use xlink:href="#SvgjsG3073" transform="translate(717.5, 307.5) scale(2.5)" fill="rgba(169, 169, 169, 1)"></use><use xlink:href="#SvgjsG3089" transform="translate(717.5, 410) scale(2.5)" fill="rgba(169, 169, 169, 1)"></use><use xlink:href="#SvgjsG3079" transform="translate(717.5, 512.5) scale(2.5)" fill="rgba(169, 169, 169, 1)"></use><use xlink:href="#SvgjsG3091" transform="translate(820, 0) scale(2.5)" fill="rgba(169, 169, 169, 1)"></use><use xlink:href="#SvgjsG3092" transform="translate(820, 102.5) scale(2.5)" fill="rgba(169, 169, 169, 1)"></use><use xlink:href="#SvgjsG3093" transform="translate(820, 205) scale(2.5)" fill="rgba(169, 169, 169, 1)"></use><use xlink:href="#SvgjsG3083" transform="translate(820, 307.5) scale(2.5)" fill="rgba(169, 169, 169, 1)"></use><use xlink:href="#SvgjsG3089" transform="translate(820, 410) scale(2.5)" fill="rgba(169, 169, 169, 1)"></use><use xlink:href="#SvgjsG3072" transform="translate(820, 512.5) scale(2.5)" fill="rgba(169, 169, 169, 1)"></use><use xlink:href="#SvgjsG3094" transform="translate(922.5, 0) scale(2.5)" fill="rgba(169, 169, 169, 1)"></use><use xlink:href="#SvgjsG3094" transform="translate(922.5, 102.5) scale(2.5)" fill="rgba(169, 169, 169, 1)"></use><use xlink:href="#SvgjsG3074" transform="translate(922.5, 205) scale(2.5)" fill="rgba(169, 169, 169, 1)"></use><use xlink:href="#SvgjsG3084" transform="translate(922.5, 307.5) scale(2.5)" fill="rgba(169, 169, 169, 1)"></use><use xlink:href="#SvgjsG3072" transform="translate(922.5, 410) scale(2.5)" fill="rgba(169, 169, 169, 1)"></use><use xlink:href="#SvgjsG3074" transform="translate(922.5, 512.5) scale(2.5)" fill="rgba(169, 169, 169, 1)"></use></g></defs></svg>