<svg xmlns="http://www.w3.org/2000/svg" version="1.1" xmlns:xlink="http://www.w3.org/1999/xlink" xmlns:svgjs="http://svgjs.dev/svgjs" width="1440" height="560" preserveAspectRatio="none" viewBox="0 0 1440 560"><g mask="url(&quot;#SvgjsMask1099&quot;)" fill="none"><rect width="1440" height="560" x="0" y="0" fill="rgba(169, 169, 169, 1)"></rect><path d="M0,466.38C85.888,469.449,155.046,398.757,220.387,342.929C278.737,293.074,312.26,225.709,355.717,162.45C409.48,84.189,499.702,22,505.943,-72.744C512.404,-170.817,462.423,-271.837,388.6,-336.724C317.554,-399.171,211.452,-384.402,120.768,-411.298C29.757,-438.291,-50.791,-503.21,-145.373,-495.095C-248.721,-486.228,-366.943,-453.331,-421.016,-364.812C-475.247,-276.035,-406.963,-163.111,-411.655,-59.187C-415.73,31.054,-488.385,123.862,-446.699,204.001C-404.848,284.457,-288.691,281.601,-210.493,327.533C-136.518,370.984,-85.737,463.316,0,466.38" fill="#909090"></path><path d="M1440 943.794C1526.416 956.04 1616.353 993.962 1696.1109999999999 958.517 1778.635 921.842 1837.944 840.374 1865.9180000000001 754.51 1892.645 672.473 1852.466 587.733 1844.911 501.783 1836.804 409.56100000000004 1874.475 305.599 1819.884 230.829 1764.972 155.62 1661.165 130.20499999999998 1568.325 122.964 1484.797 116.44999999999999 1414.93 179.697 1332.1779999999999 192.79199999999997 1231.631 208.70299999999997 1114.159 145.731 1033.338 207.625 953.7429999999999 268.58 945.7529999999999 388.65 945.514 488.904 945.293 581.294 979.2 670.524 1032.0520000000001 746.304 1079.363 814.138 1152.205 855.953 1226.644 891.989 1293.878 924.537 1366.041 933.313 1440 943.794" fill="#c2c2c2"></path></g><defs><mask id="SvgjsMask1099"><rect width="1440" height="560" fill="#ffffff"></rect></mask></defs></svg>