<svg xmlns="http://www.w3.org/2000/svg" version="1.1" xmlns:xlink="http://www.w3.org/1999/xlink" xmlns:svgjs="http://svgjs.dev/svgjs" width="1440" height="560" preserveAspectRatio="none" viewBox="0 0 1440 560"><g mask="url(&quot;#SvgjsMask1032&quot;)" fill="none"><path d="M -195.3969976940309,441 C -137.8,402.2 -22.6,258.6 92.60300230596911,247 C 207.8,235.4 265.4,409.2 380.6030023059691,383 C 495.8,356.8 553.4,115.4 668.6030023059691,116 C 783.8,116.6 841.4,365.8 956.6030023059691,386 C 1071.8,406.2 1129.4,211 1244.603002305969,217 C 1359.8,223 1493.52,433.4 1532.603002305969,416 C 1571.68,398.6 1458.52,187.2 1440,130" stroke="rgba(169, 169, 169, 1)" stroke-width="2"></path><path d="M -415.6319630085374,484 C -358.03,414.8 -242.83,144 -127.63196300853741,138 C -12.43,132 45.17,428.2 160.3680369914626,454 C 275.57,479.8 333.17,260.8 448.3680369914626,267 C 563.57,273.2 621.17,503 736.3680369914625,485 C 851.57,467 909.17,175.6 1024.3680369914625,177 C 1139.57,178.4 1229.24,515 1312.3680369914625,492 C 1395.49,469 1414.47,148 1440,62" stroke="rgba(169, 169, 169, 1)" stroke-width="2"></path><path d="M -266.30683868939434,206 C -208.71,254.4 -93.51,463.8 21.693161310605646,448 C 136.89,432.2 194.49,119 309.69316131060566,127 C 424.89,135 482.49,487.4 597.6931613106057,488 C 712.89,488.6 770.49,124.4 885.6931613106057,130 C 1000.89,135.6 1058.49,532.8 1173.6931613106055,516 C 1288.89,499.2 1408.43,58 1461.6931613106055,46 C 1514.95,34 1444.34,374 1440,456" stroke="rgba(169, 169, 169, 1)" stroke-width="2"></path><path d="M -294.78680469495794,240 C -237.19,275.8 -121.99,449.4 -6.786804694957912,419 C 108.41,388.6 166.01,88.2 281.21319530504206,88 C 396.41,87.8 454.01,405.4 569.2131953050421,418 C 684.41,430.6 742.01,159.6 857.2131953050421,151 C 972.41,142.4 1030.01,386.2 1145.213195305042,375 C 1260.41,363.8 1374.26,108 1433.213195305042,95 C 1492.17,82 1438.64,267 1440,310" stroke="rgba(169, 169, 169, 1)" stroke-width="2"></path></g><defs><mask id="SvgjsMask1032"><rect width="1440" height="560" fill="#ffffff"></rect></mask></defs></svg>